<svg id="OBJECTS" xmlns="http://www.w3.org/2000/svg" xmlns:xlink="http://www.w3.org/1999/xlink" viewBox="0 0 453.23 417.51"><defs><style>.cls-1{fill:none;}.cls-2{fill:#e3efff;}.cls-3{fill:#f2f8ff;}.cls-4{clip-path:url(#clip-path);}.cls-5{fill:#c4deff;}.cls-6{fill:#fff;}.cls-7{fill:#152c4f;}.cls-8{fill:#fe785e;}.cls-9{fill:#e04848;}.cls-10{fill:#004585;}.cls-11{fill:#266097;}.cls-12{fill:#fe9b88;}.cls-13{opacity:0.1;}.cls-14{fill:#8cc0ff;}.cls-15{fill:#b6d7ff;}.cls-16{opacity:0.5;}.cls-17{fill:#e35c5c;}.cls-18{opacity:0.15;}.cls-19{opacity:0.25;}.cls-20{fill:#ffb957;}.cls-21{fill:#ffa21f;}.cls-22{font-size:30px;fill:#6a2dba;font-family:CooperBlack, Cooper Black;}</style><clipPath id="clip-path" transform="translate(-12.21 -30.56)"><path class="cls-1" d="M40.12,134.39c-11.76,43.47-3,89.5,9.2,132.85,9.44,33.41,21.48,67.22,45.05,93.56,36.72,41.06,95.67,57.54,152.07,62.58,27.43,2.45,56,2.53,81.44-7.53,19.83-7.84,36.56-21.37,51.71-35.85,39.11-37.39,70.42-83.68,81.63-135.35s.38-108.93-35.62-149c-33.38-37.2-84.69-56.43-135.75-62C199.29,23.71,67.47,33.32,40.12,134.39Z"/></clipPath></defs><path class="cls-2" d="M40.12,134.39c-11.76,43.47-3,89.5,9.2,132.85,9.44,33.41,21.48,67.22,45.05,93.56,36.72,41.06,95.67,57.54,152.07,62.58,27.43,2.45,56,2.53,81.44-7.53,19.83-7.84,36.56-21.37,51.71-35.85,39.11-37.39,70.42-83.68,81.63-135.35s.38-108.93-35.62-149c-33.38-37.2-84.69-56.43-135.75-62C199.29,23.71,67.47,33.32,40.12,134.39Z" transform="translate(-12.21 -30.56)"/><path class="cls-3" d="M425.6,95.6c-1.35-1.51-2.75-3-4.16-4.43C411.19,98.75,404.74,110.68,397,121c-8.53,11.29-21.48,21.77-35.4,19.19-9-1.67-16.19-8.49-24.83-11.55-15.51-5.48-32.8,2.12-45.33,12.78s-22.28,24.36-35.25,34.48-31.18,16.28-45.89,8.9c-11.13-5.58-19.45-18.33-31.9-18.13-13.67.22-21.13,15.38-27.77,27.33-9.29,16.72-25.54,32.28-44.62,30.93-16.61-1.18-30.36-14.86-47-16a32.73,32.73,0,0,0-21.43,6.4,437.56,437.56,0,0,0,11.75,51.92c3,10.62,6.27,21.29,10.08,31.74,14.37,1,28.87-9.93,38.95-21.42,11.92-13.59,23.75-29.95,41.58-33,18.22-3.07,35.93,9.26,54.38,8.38,17.34-.84,31.74-12.95,45.27-23.83s29.59-21.67,46.77-19.19c13.9,2,25.84,12.53,39.88,12.75,17.72.27,30.93-15.36,42.7-28.61s29.19-26.42,45.64-19.83c7.43,3,13.7,9.81,21.7,9.57,11.27-.34,16.39-13.51,23.75-22.59C453.9,137.15,442.54,114.48,425.6,95.6Z" transform="translate(-12.21 -30.56)"/><g class="cls-4"><polygon class="cls-5" points="400.44 239.93 400.44 227.81 405.65 227.81 405.65 214.46 392.54 214.46 392.54 201.88 371.6 201.88 371.6 214.46 329.75 214.46 329.75 227.81 334.96 227.81 334.96 240.37 276.69 240.37 276.69 191.08 186.36 191.08 186.36 167.16 169.48 167.16 169.48 137.76 158.46 137.76 158.46 126.99 146.74 126.99 146.74 137.76 135.72 137.76 135.72 167.16 118.84 167.16 118.84 240.37 85.58 240.37 85.58 195.1 71.1 195.1 71.1 169.87 61.65 169.87 61.65 144.55 51.59 144.55 51.59 169.87 42.13 169.87 42.13 195.1 27.65 195.1 27.65 407.52 447.61 408.76 447.61 253.24 400.44 239.93"/></g><path class="cls-6" d="M395.16,152.27a54.11,54.11,0,0,0-50,33.45,37.85,37.85,0,0,0-54,20.65h158.1A54.1,54.1,0,0,0,395.16,152.27Z" transform="translate(-12.21 -30.56)"/><path class="cls-6" d="M116.22,92.33a54.13,54.13,0,0,0-50,33.45,37.85,37.85,0,0,0-54,20.65H170.32A54.1,54.1,0,0,0,116.22,92.33Z" transform="translate(-12.21 -30.56)"/><path class="cls-6" d="M295.14,59.07a54.11,54.11,0,0,0-50,33.45,37.87,37.87,0,0,0-54,20.65h158.1A54.1,54.1,0,0,0,295.14,59.07Z" transform="translate(-12.21 -30.56)"/><path class="cls-7" d="M235.87,192.62a2.94,2.94,0,0,1-2.54-.92,3,3,0,0,1,.14-4.2,194.61,194.61,0,0,1,29.45-22.63,3,3,0,1,1,3.16,5,187.56,187.56,0,0,0-28.55,21.95A3,3,0,0,1,235.87,192.62Z" transform="translate(-12.21 -30.56)"/><path class="cls-8" d="M192.74,225.34c-17.84,0-33.38-3.94-48.52-13.39-2.49-1.55-7.23-8.63-5.68-11.12s9.72,4.45,12.21,6c6.62,4.13,38.74,6.85,42.16,6,13.86-3.31,40.37-18.14,48-24.32,2.27-1.86,8,4,9.85,6.26a5.32,5.32,0,0,1-.77,7.48C234.61,214.78,216.65,225.34,192.74,225.34Z" transform="translate(-12.21 -30.56)"/><path class="cls-9" d="M228.82,217.73c-5.49-6.13-8-9.52-10.32-17.38,10.81-6.18,22.38-11.8,22.38-11.8,3.41-.79,3.22.71,6.65,1.75s6.67,4.09,6.2,7.62C252.3,208.69,228.82,217.73,228.82,217.73Z" transform="translate(-12.21 -30.56)"/><path class="cls-8" d="M149.36,204.22c-.36.63-1.1-.08-1.64-1.5-1.22-3.19-.15-6.55,1.29-9.46a1.59,1.59,0,0,1,2.34-.86C153,193.55,150.28,202.56,149.36,204.22Z" transform="translate(-12.21 -30.56)"/><path class="cls-7" d="M141.86,185.45l-5.46,2.68a1.51,1.51,0,0,0-.53,2.06L145,208.74a1.51,1.51,0,0,0,1.95.84l5.46-2.68a1.52,1.52,0,0,0,.52-2.06l-9.13-18.55A1.5,1.5,0,0,0,141.86,185.45Z" transform="translate(-12.21 -30.56)"/><path class="cls-10" d="M143,184.87l-6,2.93a1.56,1.56,0,0,0-.64,2.11l9.13,18.56a1.56,1.56,0,0,0,2.06.78l6-2.93a1.55,1.55,0,0,0,.63-2.11l-9.12-18.56a1.58,1.58,0,0,0-2.07-.78Z" transform="translate(-12.21 -30.56)"/><path class="cls-8" d="M140.77,196.08a4,4,0,0,1,2.76,1.21,5.78,5.78,0,0,1,1.29,2.79,14.29,14.29,0,0,1,.22,2.69c0,3.37-3.92,6.42-5.58,3a16.51,16.51,0,0,1-1.29-4.07c-.2-1.46-.34-3.36.54-4.65A2.32,2.32,0,0,1,140.77,196.08Z" transform="translate(-12.21 -30.56)"/><path class="cls-11" d="M236.29,413.75c-1.92-.43-3.06-2.5-1.32-4.28,2.62-2.69,16.29-6.1,22-6.37,2.08-.1,4.39.1,5.56,2.06s2.47,7.5-.33,8.85a7.12,7.12,0,0,1-3.34.46c-6-.12-12-.19-18.07-.33A24.36,24.36,0,0,1,236.29,413.75Z" transform="translate(-12.21 -30.56)"/><path class="cls-12" d="M252.22,403.58l1.2-25.5c.37-2.43,4.21,2.11,6.64,2.48h0c2.42.38,6.1.39,5.74,2.81L261.05,404C259.86,408.78,252.18,406.6,252.22,403.58Z" transform="translate(-12.21 -30.56)"/><polygon class="cls-7" points="250.87 365.46 239.96 363.85 248.01 228.65 281.77 228.65 250.87 365.46"/><g class="cls-13"><ellipse class="cls-10" cx="237.79" cy="409.59" rx="166.63" ry="7.92"/></g><path class="cls-7" d="M177.37,253.44H168.2a4.69,4.69,0,0,1-4.7-4.7h0a4.7,4.7,0,0,1,4.7-4.71h9.17a4.71,4.71,0,0,1,4.71,4.71h0A4.7,4.7,0,0,1,177.37,253.44Z" transform="translate(-12.21 -30.56)"/><path class="cls-14" d="M180.34,248.74a3.05,3.05,0,1,1-3.05-3.06A3.06,3.06,0,0,1,180.34,248.74Z" transform="translate(-12.21 -30.56)"/><polygon class="cls-15" points="334.08 403.88 325.23 356.06 325.64 355.98 334.49 403.8 334.08 403.88"/><polygon class="cls-15" points="325.64 403.88 325.23 403.8 334.08 355.98 334.49 356.06 325.64 403.88"/><polygon class="cls-15" points="334.08 355.91 325.23 308.09 325.64 308.01 334.49 355.83 334.08 355.91"/><polygon class="cls-15" points="325.64 355.91 325.23 355.83 334.08 308.01 334.49 308.09 325.64 355.91"/><rect class="cls-15" x="293.77" y="386.3" width="48.63" height="0.41" transform="translate(-77.25 33.79) rotate(-10.49)"/><rect class="cls-15" x="317.88" y="362.19" width="0.41" height="48.63" transform="translate(-132.05 598.41) rotate(-79.52)"/><rect class="cls-15" x="341.74" y="386.3" width="48.63" height="0.41" transform="translate(-76.45 42.53) rotate(-10.49)"/><rect class="cls-15" x="365.85" y="362.19" width="0.41" height="48.63" transform="translate(-92.81 645.57) rotate(-79.52)"/><rect class="cls-15" x="300.8" y="403.26" width="48.63" height="0.41" transform="translate(-203.75 412.42) rotate(-55.51)"/><rect class="cls-15" x="300.8" y="403.26" width="48.63" height="0.41" transform="translate(-183.74 225.13) rotate(-34.57)"/><rect class="cls-15" x="334.72" y="369.34" width="48.63" height="0.41" transform="matrix(0.57, -0.82, 0.82, 0.57, -161.06, 425.77)"/><rect class="cls-15" x="334.72" y="369.34" width="48.63" height="0.41" transform="translate(-158.5 238.38) rotate(-34.57)"/><rect class="cls-15" x="324.91" y="345.24" width="0.41" height="48.63" transform="translate(-175.82 397.45) rotate(-55.48)"/><rect class="cls-15" x="324.91" y="345.23" width="0.41" height="48.63" transform="translate(-164.39 218.72) rotate(-34.52)"/><rect class="cls-15" x="358.83" y="379.15" width="0.41" height="48.63" transform="translate(-189.07 440.1) rotate(-55.48)"/><rect class="cls-15" x="358.83" y="379.15" width="0.41" height="48.63" transform="translate(-177.64 243.91) rotate(-34.52)"/><circle class="cls-6" cx="342.07" cy="387.14" r="8.8" transform="translate(-134.83 130.85) rotate(-22.63)"/><path class="cls-11" d="M342.07,397.19a10,10,0,1,1,10-10.05A10.06,10.06,0,0,1,342.07,397.19Zm0-17.6a7.56,7.56,0,1,0,7.56,7.55A7.56,7.56,0,0,0,342.07,379.59Z" transform="translate(-12.21 -30.56)"/><path class="cls-11" d="M342.07,343.74a43.4,43.4,0,1,1-43.4,43.4,43.45,43.45,0,0,1,43.4-43.4m0-7.41a50.82,50.82,0,1,0,50.82,50.81,50.81,50.81,0,0,0-50.82-50.81Z" transform="translate(-12.21 -30.56)"/><path class="cls-10" d="M342,441.58a54.66,54.66,0,1,1,54.65-54.66A54.71,54.71,0,0,1,342,441.58Zm0-101.88a47.22,47.22,0,1,0,47.22,47.22A47.28,47.28,0,0,0,342,339.7Z" transform="translate(-12.21 -30.56)"/><path class="cls-14" d="M280.07,388a61.9,61.9,0,0,1,123.78-2.19l-8.42.15a53.48,53.48,0,1,0-106.94,1.89Z" transform="translate(-12.21 -30.56)"/><g class="cls-16"><path class="cls-6" d="M387.11,353a2,2,0,0,1-1.55-.75,56,56,0,0,0-22-16.7,2,2,0,0,1,1.53-3.65,59.9,59.9,0,0,1,23.61,17.88,2,2,0,0,1-1.55,3.22Z" transform="translate(-12.21 -30.56)"/><path class="cls-6" d="M396.75,370.78a2,2,0,0,1-1.88-1.36,55.77,55.77,0,0,0-4.29-9.72,2,2,0,1,1,3.45-1.94,59.37,59.37,0,0,1,4.6,10.42,2,2,0,0,1-1.26,2.5A2,2,0,0,1,396.75,370.78Z" transform="translate(-12.21 -30.56)"/></g><polygon class="cls-15" points="146.94 403.88 138.09 356.06 138.5 355.98 147.35 403.8 146.94 403.88"/><polygon class="cls-15" points="138.5 403.88 138.09 403.8 146.94 355.98 147.35 356.06 138.5 403.88"/><polygon class="cls-15" points="146.94 355.91 138.09 308.09 138.5 308.01 147.35 355.83 146.94 355.91"/><polygon class="cls-15" points="138.5 355.91 138.09 355.83 146.94 308.01 147.35 308.09 138.5 355.91"/><rect class="cls-15" x="106.63" y="386.3" width="48.63" height="0.41" transform="translate(-80.39 -0.27) rotate(-10.49)"/><rect class="cls-15" x="130.74" y="362.19" width="0.41" height="48.63" transform="translate(-285.15 414.39) rotate(-79.52)"/><rect class="cls-15" x="154.6" y="386.3" width="48.63" height="0.41" transform="translate(-79.58 8.46) rotate(-10.49)"/><rect class="cls-15" x="178.71" y="362.19" width="0.41" height="48.63" transform="translate(-245.91 461.56) rotate(-79.52)"/><rect class="cls-15" x="113.66" y="403.26" width="48.63" height="0.41" transform="translate(-284.92 258.17) rotate(-55.51)"/><rect class="cls-15" x="113.66" y="403.26" width="48.63" height="0.41" transform="translate(-216.72 118.88) rotate(-34.56)"/><rect class="cls-15" x="147.58" y="369.34" width="48.63" height="0.41" transform="matrix(0.57, -0.82, 0.82, 0.57, -242.27, 271.5)"/><rect class="cls-15" x="147.58" y="369.34" width="48.63" height="0.41" transform="translate(-191.5 132.13) rotate(-34.56)"/><rect class="cls-15" x="137.77" y="345.24" width="0.41" height="48.63" transform="translate(-256.92 243.26) rotate(-55.48)"/><rect class="cls-15" x="137.77" y="345.23" width="0.41" height="48.63" transform="translate(-197.33 112.68) rotate(-34.52)"/><rect class="cls-15" x="171.68" y="379.15" width="0.41" height="48.63" transform="translate(-270.16 285.91) rotate(-55.48)"/><rect class="cls-15" x="171.68" y="379.15" width="0.41" height="48.63" transform="translate(-210.58 137.87) rotate(-34.52)"/><circle class="cls-6" cx="154.93" cy="387.14" r="8.8" transform="translate(-149.24 58.85) rotate(-22.63)"/><path class="cls-11" d="M154.93,397.19a10,10,0,1,1,10-10.05A10.06,10.06,0,0,1,154.93,397.19Zm0-17.6a7.56,7.56,0,1,0,7.56,7.55A7.56,7.56,0,0,0,154.93,379.59Z" transform="translate(-12.21 -30.56)"/><path class="cls-11" d="M154.93,343.74a43.4,43.4,0,1,1-43.4,43.4,43.45,43.45,0,0,1,43.4-43.4m0-7.41a50.82,50.82,0,1,0,50.82,50.81,50.81,50.81,0,0,0-50.82-50.81Z" transform="translate(-12.21 -30.56)"/><path class="cls-10" d="M154.82,441.58a54.66,54.66,0,1,1,54.65-54.66A54.72,54.72,0,0,1,154.82,441.58Zm0-101.88A47.22,47.22,0,1,0,202,386.92,47.28,47.28,0,0,0,154.82,339.7Z" transform="translate(-12.21 -30.56)"/><path class="cls-14" d="M204.57,423.74l-6.76-5a53.48,53.48,0,1,0-86-63.63l-6.77-5a61.9,61.9,0,1,1,99.51,73.64Z" transform="translate(-12.21 -30.56)"/><g class="cls-16"><path class="cls-6" d="M139.18,333.43a2,2,0,0,1-.55-3.89,60,60,0,0,1,29.61-.85,2,2,0,0,1-.87,3.86,56.06,56.06,0,0,0-27.65.8A2,2,0,0,1,139.18,333.43Z" transform="translate(-12.21 -30.56)"/><path class="cls-6" d="M121,342.32a2,2,0,0,1-1.17-3.58,59.27,59.27,0,0,1,9.79-5.81,2,2,0,1,1,1.69,3.58,55.69,55.69,0,0,0-9.14,5.42A2,2,0,0,1,121,342.32Z" transform="translate(-12.21 -30.56)"/></g><path class="cls-10" d="M261.08,420.82H243.54a3.87,3.87,0,0,1-3.87-3.87h0a3.87,3.87,0,0,1,3.87-3.87h17.54A3.87,3.87,0,0,1,265,417h0A3.87,3.87,0,0,1,261.08,420.82Z" transform="translate(-12.21 -30.56)"/><path class="cls-7" d="M252.31,419.26A2.3,2.3,0,0,1,250,417V387.12a2.31,2.31,0,0,1,4.62,0V417A2.3,2.3,0,0,1,252.31,419.26Z" transform="translate(-12.21 -30.56)"/><path class="cls-17" d="M154.82,390.84a3.85,3.85,0,0,1-1.1-.16,3.73,3.73,0,0,1-2.46-4.65l30.85-100.3a3.71,3.71,0,0,1,7.1,2.18L158.37,388.22A3.72,3.72,0,0,1,154.82,390.84Z" transform="translate(-12.21 -30.56)"/><path class="cls-17" d="M252.31,390.84a3.73,3.73,0,0,1-3.51-4.94l37.59-107.74a3.72,3.72,0,1,1,7,2.45L255.82,388.35A3.72,3.72,0,0,1,252.31,390.84Z" transform="translate(-12.21 -30.56)"/><g class="cls-18"><path d="M286.3,278.42l-4.17,11.94,6.37,4.3L293.29,281a18.28,18.28,0,0,0-4.42-2A17.26,17.26,0,0,0,286.3,278.42Z" transform="translate(-12.21 -30.56)"/></g><path class="cls-17" d="M342,390.84H251a3.71,3.71,0,0,1-2.79-1.26l-71.32-81a3.72,3.72,0,0,1,2.79-6.17h101a3.71,3.71,0,0,1,3,1.48l61.19,81a3.72,3.72,0,0,1-3,6Zm-89.24-7.43h81.77l-55.57-73.57H188Z" transform="translate(-12.21 -30.56)"/><path class="cls-11" d="M300.6,288c-14.76,1.29-36.64-2.83-36.64-12.33,0-4.6,6.18-4.19,10.78-4.19h25.84c9.09,0,11.36,13.54,2.21,16.09A11.9,11.9,0,0,1,300.6,288Z" transform="translate(-12.21 -30.56)"/><circle class="cls-14" cx="252.31" cy="387.12" r="13.87" transform="translate(-212.05 261.23) rotate(-45)"/><path class="cls-10" d="M259.12,387.12a6.81,6.81,0,1,1-6.81-6.81A6.81,6.81,0,0,1,259.12,387.12Z" transform="translate(-12.21 -30.56)"/><path class="cls-14" d="M185.66,290.12a3.24,3.24,0,0,1-1.34-.29,3.39,3.39,0,0,1-1.79-4.08l3.63-12.16h-2.78A14.31,14.31,0,0,1,169,260.06,14.08,14.08,0,0,1,183,245.44h7.42a3.39,3.39,0,0,1,3.42,3,3.3,3.3,0,0,1-3.28,3.63h-7.34a7.62,7.62,0,0,0-7.66,6.75A7.48,7.48,0,0,0,183,267h7.4a3.54,3.54,0,0,1,2.1.63,3.3,3.3,0,0,1,1.22,3.61l-4.93,16.53A3.31,3.31,0,0,1,185.66,290.12Z" transform="translate(-12.21 -30.56)"/><polygon class="cls-10" points="175.27 263.24 167.41 263.24 171.46 249.75 179.42 249.75 175.27 263.24"/><path class="cls-15" d="M252.31,403a15.86,15.86,0,0,1,0-31.71c5.67,0,65.54,5.58,89.84,8,5.25.51,7.61,4.25,7.62,7.73a8.14,8.14,0,0,1-7.6,8.06h0C318.49,397.52,258.5,403,252.31,403Zm0-27.75a11.9,11.9,0,0,0,0,23.79c5.57,0,64.19-5.28,89.44-7.94h0a4.15,4.15,0,0,0,4.06-4.1c0-1.65-1.07-3.52-4.05-3.81C313.93,380.44,257.44,375.23,252.31,375.23Z" transform="translate(-12.21 -30.56)"/><circle class="cls-10" cx="329.74" cy="356.56" r="5.93"/><rect class="cls-10" x="237.79" y="319.83" width="4.62" height="36.73"/><path class="cls-10" d="M243.4,348.07H261a3.86,3.86,0,0,1,3.86,3.87h0A3.86,3.86,0,0,1,261,355.8H243.4a3.86,3.86,0,0,1-3.86-3.86h0A3.86,3.86,0,0,1,243.4,348.07Z" transform="translate(-12.21 -30.56)"/><path class="cls-10" d="M371.89,309.71H314.18a3.72,3.72,0,1,1,0-7.43h57.71a3.72,3.72,0,1,1,0,7.43Z" transform="translate(-12.21 -30.56)"/><path class="cls-10" d="M340.66,389.15a2.64,2.64,0,0,1-2.57-2l-19.27-80.51a2.64,2.64,0,1,1,5.13-1.23l19.28,80.52a2.65,2.65,0,0,1-2,3.18A2.54,2.54,0,0,1,340.66,389.15Z" transform="translate(-12.21 -30.56)"/><path class="cls-10" d="M343.49,389.15a2.68,2.68,0,0,1-.62-.07,2.65,2.65,0,0,1-1.95-3.18l19.27-80.52a2.64,2.64,0,1,1,5.14,1.23l-19.27,80.51A2.64,2.64,0,0,1,343.49,389.15Z" transform="translate(-12.21 -30.56)"/><path class="cls-11" d="M254.31,331.14c-.5.36-2.64,8.71-5.7,10.84-1,.7-2.21,1-3.28,1.66-1.35.77-2.72,2.38-2.53,4,.24,2.18,2.66,2.76,4.48,2.91,2.64.22,6.84.14,9-1.52,2.53-2,5.2-11.87,3.6-14.81C258.82,332.41,256,329.87,254.31,331.14Z" transform="translate(-12.21 -30.56)"/><path class="cls-12" d="M252.93,337a53.41,53.41,0,0,1-7.61-2.25c-1.06-.39-1.34-1-2.15-1.8-1.77-1.71-3.76-3.78-4.64-6.12a2.12,2.12,0,0,1-.06-1.84c1.3-2.09,9.84-.68,12.33,1.82l2,2.05c1,1.05,1.82,2,2.16,2.38C256.62,333.25,254.83,337.39,252.93,337Z" transform="translate(-12.21 -30.56)"/><path class="cls-10" d="M300.61,247a4.13,4.13,0,0,0-3.19-3.2c-2.52-.44-4.82,2.25-7.14,2.85a178.11,178.11,0,0,0-21.46,7c-1.71.68-4.76,0-8.21-1.16a41.66,41.66,0,0,1,.23,4.38c0,1.24-52.92,10.56-58.44,34.73-5.2,22.76,42.92,43.12,42.92,43.12l5.48-7.94-24-28.67c0,.05,43-15.13,50.66-18.2,6.34-2.56,12.73-5.52,17.24-10.85C299.4,263.6,302.82,254.17,300.61,247Z" transform="translate(-12.21 -30.56)"/><path class="cls-7" d="M294.75,269.12c4.65-5.52,8.07-15,5.86-22.08a4.13,4.13,0,0,0-3.19-3.2c-2.52-.44-4.82,2.25-7.14,2.85a178.11,178.11,0,0,0-21.46,7c-1.71.68-4.76,0-8.21-1.16a41.66,41.66,0,0,1,.23,4.38c0,.37-4.82,1.48-11.7,3.51,3.7,2.86,21.17,8.3,23.38,8.77a87,87,0,0,0,20,2.24A27.67,27.67,0,0,0,294.75,269.12Z" transform="translate(-12.21 -30.56)"/><path class="cls-17" d="M301.3,257.63c-9.81-30.56-14.39-47.89-23.62-60.38-17.07-23.1-38.88-27-49.17-9.53-8.57,19.81,14.27,62,21.24,72,1.57,2.27,23,4.36,25.47,4.38C302.49,264.3,301.3,257.63,301.3,257.63Z" transform="translate(-12.21 -30.56)"/><path class="cls-9" d="M242.21,177.27s-10.07,7.88-13.7,10.45a28.38,28.38,0,0,0-1.86,12.3C239.84,196.27,243.63,186.51,242.21,177.27Z" transform="translate(-12.21 -30.56)"/><path class="cls-12" d="M242.21,177.27l-2-8.43-17.65,8.39,4.09,8.61.05.09c2.19,4.65,8.13,5,12,1.62A10.62,10.62,0,0,0,242.21,177.27Z" transform="translate(-12.21 -30.56)"/><path class="cls-8" d="M237.81,165.91l-15.2,11.32,3.15,8.12c.85,1.78,1.1,3.24,5.66,4.29C240.88,188.75,237.81,165.91,237.81,165.91Z" transform="translate(-12.21 -30.56)"/><path class="cls-12" d="M239.72,155.23c-2.11-9.82-3.59-21.17-20.81-14.82-7.83,2.89-11.14-.75-11.73,7-.61,8-1.4,16-.26,24,.73,5.13,2.06,10.77,5.61,14.73,3.31,3.7,8.1,4.61,12.84,3.68C239.53,187.11,242.49,168.09,239.72,155.23Z" transform="translate(-12.21 -30.56)"/><path class="cls-7" d="M214.8,165.73c.15,1.07-.28,2-1,2.11s-1.36-.69-1.52-1.76.28-2,1-2.1S214.64,164.66,214.8,165.73Z" transform="translate(-12.21 -30.56)"/><path class="cls-7" d="M216.92,159.91a.39.39,0,0,1-.15,0,29.27,29.27,0,0,0-6.55-.7.64.64,0,0,1-.68-.63.66.66,0,0,1,.64-.68,29.23,29.23,0,0,1,6.88.73.66.66,0,0,1-.14,1.3Z" transform="translate(-12.21 -30.56)"/><path class="cls-8" d="M208.49,173.29a1.87,1.87,0,0,1-1.55-.66c-1.17-1.48.47-4.78.81-5.42a.66.66,0,0,1,.89-.28.67.67,0,0,1,.28.9c-.69,1.3-1.4,3.41-.95,4,.16.2.63.22,1.28.05a.66.66,0,0,1,.33,1.28A4.58,4.58,0,0,1,208.49,173.29Z" transform="translate(-12.21 -30.56)"/><g class="cls-19"><path class="cls-7" d="M225.91,139.83c-5.56,3.43-4.45,11.93-1.88,17.48a15.17,15.17,0,0,0,7.47,7.86,9.54,9.54,0,0,0,9.35-1c0-3.33-1.48-15.45-4.72-20.81C232.12,136.74,233.09,141.11,225.91,139.83Z" transform="translate(-12.21 -30.56)"/></g><path class="cls-7" d="M241.06,144.66a24.23,24.23,0,0,1-11.78,1.21,46.51,46.51,0,0,0,16.37-12.41c-5.89.77-11.61-2.09-17.51-2.77a22.36,22.36,0,0,0-13.09,2.39,19.34,19.34,0,0,0-8.86,9.84,10.78,10.78,0,0,0-.85,4.87,6,6,0,0,0,1.61,3.77c.9.79,2.31.93,3.47,1.17a35.22,35.22,0,0,0,7.8.69,36.68,36.68,0,0,0,15.35-3.76A34.23,34.23,0,0,0,241.06,144.66Z" transform="translate(-12.21 -30.56)"/><path class="cls-12" d="M232.65,168c.8.52,5.07-2.12,2.85-7.9-1.5-3.91-4.84-3.19-5.87-1.07C227.93,162.5,230.39,166.57,232.65,168Z" transform="translate(-12.21 -30.56)"/><path class="cls-8" d="M234.28,165.38a3,3,0,0,1-2.49-1.63,5,5,0,0,1-.29-4.65.33.33,0,0,1,.59.3,4.25,4.25,0,0,0,.26,4,2.38,2.38,0,0,0,1.93,1.32.33.33,0,1,1,0,.66Z" transform="translate(-12.21 -30.56)"/><path class="cls-8" d="M212.2,176.42a6,6,0,0,1-3.3-.9.66.66,0,1,1,.72-1.1,5.81,5.81,0,0,0,5.19.15,6,6,0,0,0,3.69-4.43.66.66,0,0,1,1.29.26,7.34,7.34,0,0,1-4.47,5.38A8.07,8.07,0,0,1,212.2,176.42Z" transform="translate(-12.21 -30.56)"/><path class="cls-7" d="M207.58,166.15a2,2,0,0,0-1.21-1.73c0,1.27.09,2.56.2,3.84h.05C207.3,168.16,207.73,167.22,207.58,166.15Z" transform="translate(-12.21 -30.56)"/><path class="cls-9" d="M259.86,233.8s.09-29.53-8.21-37.61c-2.72-2.65-15.35,26.2-16.56,32.63.85.5,1.71,1,2.58,1.45-.47,1.45-.94,2.9-1.39,4.32a193.57,193.57,0,0,0,9.41,18.64,35.78,35.78,0,0,0,3.69-7,95.25,95.25,0,0,0,3.79-11.52A45.19,45.19,0,0,0,259.86,233.8Z" transform="translate(-12.21 -30.56)"/><path class="cls-9" d="M277.68,197.25a71.44,71.44,0,0,0-7.3-8.45,278.14,278.14,0,0,0,14.95,46c3.05,7.25,6.44,14.5,11.63,20.41a19.53,19.53,0,0,0,4,3.61,2,2,0,0,0,.35-1.24C291.49,227.07,286.91,209.74,277.68,197.25Z" transform="translate(-12.21 -30.56)"/><path class="cls-10" d="M292.31,239a2.9,2.9,0,0,1-1-.19c-4-1.49-8-2.94-11.85-4.34-16.58-6-32.24-11.74-44.78-19.07a3,3,0,0,1-1.36-3.38c4.85-17,30.27-44,31.3-45.13s1.88-.05,3.08,1.08a3,3,0,0,1,.11,4.2c-.23.24-22.18,23.57-28,39.29,11.74,6.5,26.34,11.82,41.74,17.43,3.86,1.4,7.86,2.86,11.88,4.36a3,3,0,0,1-1,5.75Z" transform="translate(-12.21 -30.56)"/><path class="cls-12" d="M192.79,242.38c12.33,0,38.78-1.25,38.58-1.27,3-9.28,9.32-25.31,12.32-34.58.75-2.32,5.45-9.86,7.72-9,3.08,1.21,3.83,5.17,3.9,8.48a76.77,76.77,0,0,1-6.85,33.25c-2.53,5.53-6.44,10.41-12.36,12.7-5.41,2.09-17.36.94-22.95.37-3.57-.37-11.43-1.44-14.3-3.05C195.64,247.54,192.27,246,192.79,242.38Z" transform="translate(-12.21 -30.56)"/><path class="cls-10" d="M196.78,253.44H186.13a4.7,4.7,0,0,1-4.71-4.7h0a4.71,4.71,0,0,1,4.71-4.71h10.65a4.71,4.71,0,0,1,4.71,4.71h0A4.7,4.7,0,0,1,196.78,253.44Z" transform="translate(-12.21 -30.56)"/><path class="cls-7" d="M200.25,248.74a3.06,3.06,0,1,1-3.05-3.06A3.06,3.06,0,0,1,200.25,248.74Z" transform="translate(-12.21 -30.56)"/><path class="cls-12" d="M184.06,249c.75,3.27,4.78,4.2,6.53,1.09,1.1-2,1.85-6.82,9.66-6.29.46,0,2.15-.22,1.11-1.25a.75.75,0,0,0-.55-.14,15.25,15.25,0,0,1-3.64-.09c-3.61-.85-9.45-2.67-12.06,1.06A7.55,7.55,0,0,0,184.06,249Z" transform="translate(-12.21 -30.56)"/><path class="cls-17" d="M257,229c-7.75,1.25-15.69-1.13-22.63-4.8,1.19-5.58,14.58-32.65,17.25-30.35C259.81,200.84,257,229,257,229Z" transform="translate(-12.21 -30.56)"/><path class="cls-20" d="M372,226.48l-71.8,29.07-37.8-93.33,86.86-35.17L381,205.31A16.26,16.26,0,0,1,372,226.48Z" transform="translate(-12.21 -30.56)"/><rect class="cls-21" x="264.85" y="143.5" width="93.71" height="31.14" transform="matrix(0.93, -0.38, 0.38, 0.93, -49.13, 98.08)"/><rect class="cls-10" x="284.69" y="153.03" width="6.93" height="31.14" transform="translate(-54.43 89.93) rotate(-22.05)"/><rect class="cls-10" x="331.79" y="133.96" width="6.93" height="31.14" transform="translate(-43.83 106.21) rotate(-22.05)"/><g class="cls-18"><path d="M381,205.31l-20-49.4-11.69-28.86L344,129.18s24.44,62.11,30.55,77.95c2.61,6.77,2,17.67-4.22,20l1.67-.68A16.26,16.26,0,0,0,381,205.31Z" transform="translate(-12.21 -30.56)"/></g><path class="cls-10" d="M381.53,222.63l-72.89,29.52A2.81,2.81,0,0,1,305,250.6h0a2.82,2.82,0,0,1,1.55-3.68l72.9-29.52a2.82,2.82,0,0,1,3.67,1.56h0A2.82,2.82,0,0,1,381.53,222.63Z" transform="translate(-12.21 -30.56)"/><path class="cls-11" d="M374.42,225.51,301.52,255a2.82,2.82,0,0,1-3.67-1.55h0a2.81,2.81,0,0,1,1.56-3.67l72.89-29.53a2.82,2.82,0,0,1,3.67,1.56h0A2.81,2.81,0,0,1,374.42,225.51Z" transform="translate(-12.21 -30.56)"/><path class="cls-21" d="M141.7,66.13c-11,0-23,2.11-31.56,9.43-9.78,8.33-12.22,22.15-8.81,34.14,5.19,18.27,41,62.93,41,62.93L162.5,120.3a39,39,0,0,0,5-19c0-16.24-2.37-21.57-18.38-24.76C146.78,76,144,66.13,141.7,66.13Zm-8.48,46a13,13,0,1,1,13-13A13,13,0,0,1,133.22,112.15Z" transform="translate(-12.21 -30.56)"/><path class="cls-20" d="M142.15,66.13a34.24,34.24,0,0,0-33.59,34.23c0,.34,0,.7,0,1.08a38.49,38.49,0,0,0,4.8,17.62l29.43,53.57,29.27-52.33a38.94,38.94,0,0,0,5-19h0C177.05,82.07,161.34,65.77,142.15,66.13Zm.66,46a13,13,0,1,1,13-13A13,13,0,0,1,142.81,112.15Z" transform="translate(-12.21 -30.56)"/><text class="cls-22" transform="translate(285.71 187.6) rotate(-22.63) scale(1.06 1)">easy</text></svg>