<svg xmlns="http://www.w3.org/2000/svg" xmlns:xlink="http://www.w3.org/1999/xlink" width="1920" zoomAndPan="magnify" viewBox="0 0 1440 1439.999935" height="1920" preserveAspectRatio="xMidYMid meet" version="1.0"><defs><g/><clipPath id="d1d7eac996"><path d="M 1046 465 L 1256 465 L 1256 674 L 1046 674 Z M 1046 465 " clip-rule="nonzero"/></clipPath><clipPath id="8f02f0099f"><path d="M 1002.5 501.625 L 1146.75 357.375 L 1362.066406 572.6875 L 1217.816406 716.9375 Z M 1002.5 501.625 " clip-rule="nonzero"/></clipPath><clipPath id="8a5eca44ee"><path d="M 1002.5 501.625 L 1146.75 357.375 L 1362.066406 572.6875 L 1217.816406 716.9375 Z M 1002.5 501.625 " clip-rule="nonzero"/></clipPath><clipPath id="c0781edb30"><path d="M 1149 371 L 1360 371 L 1360 580 L 1149 580 Z M 1149 371 " clip-rule="nonzero"/></clipPath><clipPath id="7465b737e4"><path d="M 1105.855469 407.519531 L 1250.105469 263.269531 L 1465.417969 478.582031 L 1321.167969 622.832031 Z M 1105.855469 407.519531 " clip-rule="nonzero"/></clipPath><clipPath id="8df8f6be5c"><path d="M 1105.855469 407.519531 L 1250.105469 263.269531 L 1465.417969 478.582031 L 1321.167969 622.832031 Z M 1105.855469 407.519531 " clip-rule="nonzero"/></clipPath></defs><rect x="-144" width="1728" fill="#ffffff" y="-143.999994" height="1727.999922" fill-opacity="1"/><rect x="-144" width="1728" fill="#ffffff" y="-143.999994" height="1727.999922" fill-opacity="1"/><g clip-path="url(#d1d7eac996)"><g clip-path="url(#8f02f0099f)"><g clip-path="url(#8a5eca44ee)"><path fill="#18cb96" d="M 1255.902344 466.777344 L 1073.671875 465.851562 C 1038.476562 465.675781 1035.234375 534.351562 1076.910156 533.84375 L 1190.226562 532.453125 L 1186.0625 646.695312 C 1184.796875 681.480469 1252.582031 682.484375 1253.125 647.15625 Z M 1255.902344 466.777344 " fill-opacity="1" fill-rule="nonzero"/></g></g></g><g clip-path="url(#c0781edb30)"><g clip-path="url(#7465b737e4)"><g clip-path="url(#8df8f6be5c)"><path fill="#18cb96" d="M 1359.257812 372.671875 L 1177.027344 371.746094 C 1141.828125 371.566406 1138.589844 440.246094 1180.265625 439.738281 L 1293.578125 438.347656 L 1289.417969 552.589844 C 1288.148438 587.375 1355.9375 588.375 1356.480469 553.050781 Z M 1359.257812 372.671875 " fill-opacity="1" fill-rule="nonzero"/></g></g></g><g fill="#373643" fill-opacity="1"><g transform="translate(127.743754, 907.683815)"><g><path d="M 332.6875 -83.4375 C 332.6875 -79.832031 332.144531 -76.039062 331.0625 -72.0625 C 329.976562 -68.09375 327.8125 -64.300781 324.5625 -60.6875 C 313.726562 -48.039062 300.539062 -36.660156 285 -26.546875 C 269.46875 -16.429688 253.03125 -8.570312 235.6875 -2.96875 C 218.351562 2.625 201.203125 5.421875 184.234375 5.421875 C 148.460938 5.421875 117.484375 -2.160156 91.296875 -17.328125 C 65.109375 -32.503906 44.878906 -53.726562 30.609375 -81 C 16.347656 -108.28125 9.578125 -139.800781 10.296875 -175.5625 C 10.296875 -210.59375 17.609375 -241.203125 32.234375 -267.390625 C 46.867188 -293.585938 67.367188 -314 93.734375 -328.625 C 120.109375 -343.257812 150.816406 -350.578125 185.859375 -350.578125 C 209.691406 -350.578125 233.257812 -346.238281 256.5625 -337.5625 C 279.863281 -328.894531 299.460938 -316.070312 315.359375 -299.09375 C 322.941406 -291.144531 326.367188 -283.195312 325.640625 -275.25 C 324.921875 -267.3125 321.582031 -260.898438 315.625 -256.015625 C 309.664062 -251.140625 302.441406 -248.882812 293.953125 -249.25 C 285.460938 -249.613281 277.242188 -253.945312 269.296875 -262.25 C 257.734375 -274.53125 244.632812 -283.378906 230 -288.796875 C 215.375 -294.222656 200.660156 -296.9375 185.859375 -296.9375 C 163.460938 -296.9375 143.679688 -291.785156 126.515625 -281.484375 C 109.359375 -271.191406 96.082031 -256.832031 86.6875 -238.40625 C 77.300781 -219.988281 72.609375 -198.5 72.609375 -173.9375 C 72.972656 -149.726562 77.847656 -128.234375 87.234375 -109.453125 C 96.628906 -90.671875 109.722656 -75.953125 126.515625 -65.296875 C 143.316406 -54.640625 162.734375 -49.3125 184.765625 -49.3125 C 200.660156 -49.3125 216.460938 -52.832031 232.171875 -59.875 C 247.890625 -66.914062 260.988281 -76.578125 271.46875 -88.859375 L 271.46875 -144.125 L 192.359375 -144.125 C 182.242188 -144.125 174.742188 -146.832031 169.859375 -152.25 C 164.984375 -157.675781 162.546875 -163.640625 162.546875 -170.140625 C 162.546875 -177.359375 164.984375 -183.765625 169.859375 -189.359375 C 174.742188 -194.960938 182.242188 -197.765625 192.359375 -197.765625 L 300.1875 -197.765625 C 312.820312 -197.765625 321.394531 -195.054688 325.90625 -189.640625 C 330.425781 -184.222656 332.6875 -177.179688 332.6875 -168.515625 Z M 332.6875 -83.4375 "/></g></g></g><g fill="#373643" fill-opacity="1"><g transform="translate(489.150089, 907.683815)"><g><path d="M 177.1875 -350.578125 C 182.96875 -350.578125 188.382812 -349.398438 193.4375 -347.046875 C 198.5 -344.703125 202.289062 -340.820312 204.8125 -335.40625 L 358.15625 -34.671875 C 362.851562 -26.722656 364.117188 -19.769531 361.953125 -13.8125 C 359.785156 -7.851562 355.628906 -3.160156 349.484375 0.265625 C 343.347656 3.703125 336.847656 5.421875 329.984375 5.421875 C 324.921875 5.421875 319.769531 4.066406 314.53125 1.359375 C 309.300781 -1.347656 305.238281 -5.234375 302.34375 -10.296875 L 264.421875 -85.609375 L 89.953125 -85.609375 L 52.015625 -10.296875 C 49.484375 -4.515625 45.597656 -0.453125 40.359375 1.890625 C 35.128906 4.242188 29.984375 5.421875 24.921875 5.421875 C 18.785156 5.421875 12.734375 3.703125 6.765625 0.265625 C 0.804688 -3.160156 -3.523438 -7.851562 -6.234375 -13.8125 C -8.941406 -19.769531 -8.671875 -26.179688 -5.421875 -33.046875 L 149 -335.40625 C 151.894531 -341.539062 155.597656 -345.601562 160.109375 -347.59375 C 164.628906 -349.582031 170.320312 -350.578125 177.1875 -350.578125 Z M 177.1875 -259 L 116.5 -138.171875 L 237.875 -138.171875 Z M 177.1875 -259 "/></g></g></g><g fill="#373643" fill-opacity="1"><g transform="translate(846.221781, 907.683815)"><g><path d="M 280.671875 -345.15625 C 291.148438 -345.15625 299.097656 -342.265625 304.515625 -336.484375 C 309.929688 -330.703125 312.640625 -324.203125 312.640625 -316.984375 C 312.640625 -310.117188 309.929688 -303.796875 304.515625 -298.015625 C 299.097656 -292.234375 291.148438 -289.34375 280.671875 -289.34375 L 179.890625 -289.34375 L 180.4375 -28.71875 C 180.4375 -18.96875 176.910156 -11.742188 169.859375 -7.046875 C 162.816406 -2.347656 155.6875 0 148.46875 0 C 140.882812 0 133.75 -2.347656 127.0625 -7.046875 C 120.375 -11.742188 117.03125 -18.96875 117.03125 -28.71875 L 117.03125 -289.34375 L 16.796875 -289.34375 C 6.316406 -289.34375 -1.359375 -292.234375 -6.234375 -298.015625 C -11.109375 -303.796875 -13.546875 -310.117188 -13.546875 -316.984375 C -13.546875 -324.203125 -11.109375 -330.703125 -6.234375 -336.484375 C -1.359375 -342.265625 6.316406 -345.15625 16.796875 -345.15625 Z M 280.671875 -345.15625 "/></g></g></g><g fill="#373643" fill-opacity="1"><g transform="translate(323.604343, 1042.848959)"><g><path d="M 36.046875 0.796875 C 29.398438 0.796875 23.800781 -0.460938 19.25 -2.984375 C 14.695312 -5.515625 11.242188 -9.160156 8.890625 -13.921875 C 6.546875 -18.679688 5.375 -24.378906 5.375 -31.015625 C 5.375 -35.953125 6.035156 -40.390625 7.359375 -44.328125 C 8.679688 -48.265625 10.617188 -51.597656 13.171875 -54.328125 C 15.734375 -57.054688 18.847656 -59.171875 22.515625 -60.671875 C 26.191406 -62.171875 30.347656 -62.921875 34.984375 -62.921875 C 38.679688 -62.921875 42.265625 -62.40625 45.734375 -61.375 C 49.203125 -60.351562 52.285156 -58.722656 54.984375 -56.484375 C 55.691406 -55.953125 56.132812 -55.363281 56.3125 -54.71875 C 56.488281 -54.070312 56.472656 -53.425781 56.265625 -52.78125 C 56.054688 -52.132812 55.734375 -51.59375 55.296875 -51.15625 C 54.859375 -50.71875 54.300781 -50.46875 53.625 -50.40625 C 52.945312 -50.34375 52.253906 -50.550781 51.546875 -51.03125 C 49.140625 -52.90625 46.582031 -54.269531 43.875 -55.125 C 41.175781 -55.976562 38.179688 -56.40625 34.890625 -56.40625 C 30.191406 -56.40625 26.210938 -55.40625 22.953125 -53.40625 C 19.691406 -51.40625 17.222656 -48.523438 15.546875 -44.765625 C 13.878906 -41.003906 13.046875 -36.421875 13.046875 -31.015625 C 13.046875 -22.796875 14.96875 -16.507812 18.8125 -12.15625 C 22.664062 -7.8125 28.46875 -5.640625 36.21875 -5.640625 C 39.039062 -5.640625 41.800781 -5.914062 44.5 -6.46875 C 47.207031 -7.03125 49.765625 -7.8125 52.171875 -8.8125 L 50.578125 -4.671875 L 50.578125 -26.609375 L 37.984375 -26.609375 C 36.921875 -26.609375 36.125 -26.875 35.59375 -27.40625 C 35.070312 -27.9375 34.8125 -28.640625 34.8125 -29.515625 C 34.8125 -30.460938 35.070312 -31.171875 35.59375 -31.640625 C 36.125 -32.109375 36.921875 -32.34375 37.984375 -32.34375 L 53.75 -32.34375 C 54.75 -32.34375 55.515625 -32.078125 56.046875 -31.546875 C 56.578125 -31.015625 56.84375 -30.25 56.84375 -29.25 L 56.84375 -6.25 C 56.84375 -5.375 56.691406 -4.640625 56.390625 -4.046875 C 56.097656 -3.460938 55.601562 -3.023438 54.90625 -2.734375 C 52.4375 -1.734375 49.484375 -0.894531 46.046875 -0.21875 C 42.609375 0.457031 39.273438 0.796875 36.046875 0.796875 Z M 36.046875 0.796875 "/></g></g></g><g fill="#373643" fill-opacity="1"><g transform="translate(387.553961, 1042.848959)"><g><path d="M 10.3125 0.609375 C 9.132812 0.609375 8.238281 0.285156 7.625 -0.359375 C 7.007812 -1.003906 6.703125 -1.910156 6.703125 -3.078125 L 6.703125 -39.828125 C 6.703125 -41.003906 6.992188 -41.898438 7.578125 -42.515625 C 8.160156 -43.140625 9.015625 -43.453125 10.140625 -43.453125 C 11.253906 -43.453125 12.117188 -43.140625 12.734375 -42.515625 C 13.347656 -41.898438 13.65625 -41.003906 13.65625 -39.828125 L 13.65625 -32.6875 L 12.78125 -32.6875 C 13.71875 -36.15625 15.507812 -38.828125 18.15625 -40.703125 C 20.800781 -42.585938 24.0625 -43.585938 27.9375 -43.703125 C 28.8125 -43.765625 29.515625 -43.570312 30.046875 -43.125 C 30.578125 -42.6875 30.875 -41.941406 30.9375 -40.890625 C 30.988281 -39.890625 30.75 -39.09375 30.21875 -38.5 C 29.695312 -37.914062 28.878906 -37.566406 27.765625 -37.453125 L 26.34375 -37.28125 C 22.351562 -36.925781 19.285156 -35.644531 17.140625 -33.4375 C 14.992188 -31.238281 13.921875 -28.226562 13.921875 -24.40625 L 13.921875 -3.078125 C 13.921875 -1.910156 13.613281 -1.003906 13 -0.359375 C 12.382812 0.285156 11.488281 0.609375 10.3125 0.609375 Z M 10.3125 0.609375 "/></g></g></g><g fill="#373643" fill-opacity="1"><g transform="translate(419.088356, 1042.848959)"><g><path d="M 20.1875 0.796875 C 17.25 0.796875 14.617188 0.222656 12.296875 -0.921875 C 9.972656 -2.066406 8.132812 -3.640625 6.78125 -5.640625 C 5.4375 -7.640625 4.765625 -9.875 4.765625 -12.34375 C 4.765625 -15.507812 5.570312 -18.003906 7.1875 -19.828125 C 8.800781 -21.648438 11.472656 -22.941406 15.203125 -23.703125 C 18.929688 -24.460938 24.023438 -24.84375 30.484375 -24.84375 L 34.453125 -24.84375 L 34.453125 -20.1875 L 30.578125 -20.1875 C 25.816406 -20.1875 22.070312 -19.960938 19.34375 -19.515625 C 16.613281 -19.078125 14.703125 -18.328125 13.609375 -17.265625 C 12.523438 -16.210938 11.984375 -14.71875 11.984375 -12.78125 C 11.984375 -10.375 12.820312 -8.40625 14.5 -6.875 C 16.175781 -5.34375 18.453125 -4.578125 21.328125 -4.578125 C 23.671875 -4.578125 25.738281 -5.132812 27.53125 -6.25 C 29.332031 -7.375 30.742188 -8.90625 31.765625 -10.84375 C 32.796875 -12.78125 33.3125 -15.007812 33.3125 -17.53125 L 33.3125 -27.578125 C 33.3125 -31.222656 32.578125 -33.851562 31.109375 -35.46875 C 29.640625 -37.082031 27.226562 -37.890625 23.875 -37.890625 C 21.820312 -37.890625 19.765625 -37.625 17.703125 -37.09375 C 15.648438 -36.570312 13.476562 -35.722656 11.1875 -34.546875 C 10.363281 -34.128906 9.660156 -33.992188 9.078125 -34.140625 C 8.492188 -34.296875 8.023438 -34.609375 7.671875 -35.078125 C 7.316406 -35.546875 7.109375 -36.085938 7.046875 -36.703125 C 6.992188 -37.316406 7.128906 -37.914062 7.453125 -38.5 C 7.773438 -39.09375 8.285156 -39.566406 8.984375 -39.921875 C 11.566406 -41.210938 14.117188 -42.148438 16.640625 -42.734375 C 19.171875 -43.328125 21.582031 -43.625 23.875 -43.625 C 27.582031 -43.625 30.640625 -43.019531 33.046875 -41.8125 C 35.453125 -40.613281 37.242188 -38.789062 38.421875 -36.34375 C 39.597656 -33.90625 40.1875 -30.78125 40.1875 -26.96875 L 40.1875 -3.078125 C 40.1875 -1.910156 39.90625 -1.003906 39.34375 -0.359375 C 38.789062 0.285156 37.984375 0.609375 36.921875 0.609375 C 35.804688 0.609375 34.953125 0.285156 34.359375 -0.359375 C 33.773438 -1.003906 33.484375 -1.910156 33.484375 -3.078125 L 33.484375 -9.953125 L 34.28125 -9.953125 C 33.8125 -7.722656 32.914062 -5.8125 31.59375 -4.21875 C 30.269531 -2.632812 28.640625 -1.398438 26.703125 -0.515625 C 24.765625 0.359375 22.59375 0.796875 20.1875 0.796875 Z M 20.1875 0.796875 "/></g></g></g><g fill="#373643" fill-opacity="1"><g transform="translate(465.773347, 1042.848959)"><g><path d="M 28.375 0.796875 C 24.5 0.796875 21.164062 -0.203125 18.375 -2.203125 C 15.582031 -4.203125 13.71875 -6.875 12.78125 -10.21875 L 13.75 -11.1875 L 13.75 -3.078125 C 13.75 -1.910156 13.4375 -1.003906 12.8125 -0.359375 C 12.195312 0.285156 11.332031 0.609375 10.21875 0.609375 C 9.039062 0.609375 8.160156 0.285156 7.578125 -0.359375 C 6.992188 -1.003906 6.703125 -1.910156 6.703125 -3.078125 L 6.703125 -59.125 C 6.703125 -60.300781 6.992188 -61.195312 7.578125 -61.8125 C 8.160156 -62.4375 9.039062 -62.75 10.21875 -62.75 C 11.332031 -62.75 12.210938 -62.4375 12.859375 -61.8125 C 13.503906 -61.195312 13.828125 -60.300781 13.828125 -59.125 L 13.828125 -32.875 L 12.78125 -32.875 C 13.78125 -36.164062 15.660156 -38.78125 18.421875 -40.71875 C 21.179688 -42.65625 24.5 -43.625 28.375 -43.625 C 32.25 -43.625 35.597656 -42.726562 38.421875 -40.9375 C 41.242188 -39.144531 43.429688 -36.585938 44.984375 -33.265625 C 46.546875 -29.941406 47.328125 -25.992188 47.328125 -21.421875 C 47.328125 -16.890625 46.546875 -12.960938 44.984375 -9.640625 C 43.429688 -6.328125 41.226562 -3.757812 38.375 -1.9375 C 35.53125 -0.113281 32.195312 0.796875 28.375 0.796875 Z M 26.875 -4.9375 C 29.582031 -4.9375 31.921875 -5.582031 33.890625 -6.875 C 35.859375 -8.164062 37.382812 -10.046875 38.46875 -12.515625 C 39.550781 -14.984375 40.09375 -17.953125 40.09375 -21.421875 C 40.09375 -26.765625 38.898438 -30.84375 36.515625 -33.65625 C 34.140625 -36.476562 30.925781 -37.890625 26.875 -37.890625 C 24.226562 -37.890625 21.90625 -37.257812 19.90625 -36 C 17.914062 -34.738281 16.375 -32.890625 15.28125 -30.453125 C 14.195312 -28.015625 13.65625 -25.003906 13.65625 -21.421875 C 13.65625 -16.128906 14.859375 -12.054688 17.265625 -9.203125 C 19.679688 -6.359375 22.882812 -4.9375 26.875 -4.9375 Z M 26.875 -4.9375 "/></g></g></g><g fill="#373643" fill-opacity="1"><g transform="translate(517.177026, 1042.848959)"><g/></g></g><g fill="#373643" fill-opacity="1"><g transform="translate(539.902918, 1042.848959)"><g/></g></g><g fill="#373643" fill-opacity="1"><g transform="translate(562.628811, 1042.848959)"><g/></g></g><g fill="#373643" fill-opacity="1"><g transform="translate(585.36509, 1042.848959)"><g><path d="M 6.34375 0.609375 C 5.40625 0.609375 4.65625 0.390625 4.09375 -0.046875 C 3.539062 -0.484375 3.21875 -1.066406 3.125 -1.796875 C 3.039062 -2.535156 3.203125 -3.375 3.609375 -4.3125 L 27.84375 -59.484375 C 28.375 -60.660156 29.003906 -61.5 29.734375 -62 C 30.472656 -62.5 31.285156 -62.75 32.171875 -62.75 C 33.046875 -62.75 33.847656 -62.5 34.578125 -62 C 35.316406 -61.5 35.921875 -60.660156 36.390625 -59.484375 L 60.71875 -4.3125 C 61.1875 -3.375 61.375 -2.519531 61.28125 -1.75 C 61.195312 -0.988281 60.890625 -0.40625 60.359375 0 C 59.835938 0.40625 59.101562 0.609375 58.15625 0.609375 C 57.101562 0.609375 56.253906 0.332031 55.609375 -0.21875 C 54.960938 -0.78125 54.429688 -1.585938 54.015625 -2.640625 L 47.5 -17.71875 L 51.03125 -15.859375 L 13.125 -15.859375 L 16.75 -17.71875 L 10.3125 -2.640625 C 9.78125 -1.523438 9.21875 -0.703125 8.625 -0.171875 C 8.039062 0.347656 7.28125 0.609375 6.34375 0.609375 Z M 32.078125 -53.671875 L 17.890625 -20.265625 L 15.78125 -21.9375 L 48.375 -21.9375 L 46.4375 -20.265625 L 32.25 -53.671875 Z M 32.078125 -53.671875 "/></g></g></g><g fill="#373643" fill-opacity="1"><g transform="translate(649.578979, 1042.848959)"><g><path d="M 10.21875 0.609375 C 9.039062 0.609375 8.160156 0.285156 7.578125 -0.359375 C 6.992188 -1.003906 6.703125 -1.910156 6.703125 -3.078125 L 6.703125 -39.828125 C 6.703125 -41.003906 6.992188 -41.898438 7.578125 -42.515625 C 8.160156 -43.140625 9.015625 -43.453125 10.140625 -43.453125 C 11.253906 -43.453125 12.117188 -43.140625 12.734375 -42.515625 C 13.347656 -41.898438 13.65625 -41.003906 13.65625 -39.828125 L 13.65625 -32.25 L 12.6875 -33.3125 C 13.925781 -36.71875 15.9375 -39.285156 18.71875 -41.015625 C 21.507812 -42.753906 24.726562 -43.625 28.375 -43.625 C 31.78125 -43.625 34.613281 -43.003906 36.875 -41.765625 C 39.132812 -40.535156 40.820312 -38.671875 41.9375 -36.171875 C 43.0625 -33.679688 43.625 -30.523438 43.625 -26.703125 L 43.625 -3.078125 C 43.625 -1.910156 43.3125 -1.003906 42.6875 -0.359375 C 42.070312 0.285156 41.207031 0.609375 40.09375 0.609375 C 38.914062 0.609375 38.019531 0.285156 37.40625 -0.359375 C 36.789062 -1.003906 36.484375 -1.910156 36.484375 -3.078125 L 36.484375 -26.265625 C 36.484375 -30.253906 35.703125 -33.175781 34.140625 -35.03125 C 32.585938 -36.882812 30.109375 -37.8125 26.703125 -37.8125 C 22.765625 -37.8125 19.632812 -36.585938 17.3125 -34.140625 C 14.988281 -31.703125 13.828125 -28.457031 13.828125 -24.40625 L 13.828125 -3.078125 C 13.828125 -0.617188 12.625 0.609375 10.21875 0.609375 Z M 10.21875 0.609375 "/></g></g></g><g fill="#373643" fill-opacity="1"><g transform="translate(699.611205, 1042.848959)"><g><path d="M 16.21875 16.484375 C 15.332031 16.484375 14.625 16.242188 14.09375 15.765625 C 13.570312 15.296875 13.265625 14.664062 13.171875 13.875 C 13.085938 13.082031 13.222656 12.273438 13.578125 11.453125 L 19.65625 -2.203125 L 19.65625 0.875 L 2.734375 -38.421875 C 2.378906 -39.304688 2.257812 -40.128906 2.375 -40.890625 C 2.5 -41.648438 2.851562 -42.265625 3.4375 -42.734375 C 4.019531 -43.210938 4.84375 -43.453125 5.90625 -43.453125 C 6.84375 -43.453125 7.578125 -43.242188 8.109375 -42.828125 C 8.640625 -42.421875 9.109375 -41.6875 9.515625 -40.625 L 23.96875 -5.203125 L 21.59375 -5.203125 L 36.21875 -40.625 C 36.6875 -41.6875 37.1875 -42.421875 37.71875 -42.828125 C 38.25 -43.242188 39.015625 -43.453125 40.015625 -43.453125 C 40.953125 -43.453125 41.671875 -43.210938 42.171875 -42.734375 C 42.671875 -42.265625 42.960938 -41.660156 43.046875 -40.921875 C 43.140625 -40.191406 43.007812 -39.390625 42.65625 -38.515625 L 20.09375 13.65625 C 19.625 14.71875 19.109375 15.453125 18.546875 15.859375 C 17.992188 16.273438 17.21875 16.484375 16.21875 16.484375 Z M 16.21875 16.484375 "/></g></g></g><g fill="#373643" fill-opacity="1"><g transform="translate(744.894627, 1042.848959)"><g/></g></g><g fill="#373643" fill-opacity="1"><g transform="translate(767.620519, 1042.848959)"><g/></g></g><g fill="#373643" fill-opacity="1"><g transform="translate(790.346412, 1042.848959)"><g/></g></g><g fill="#373643" fill-opacity="1"><g transform="translate(813.08269, 1042.848959)"><g><path d="M 26.53125 0.609375 C 25.40625 0.609375 24.519531 0.273438 23.875 -0.390625 C 23.226562 -1.066406 22.90625 -1.992188 22.90625 -3.171875 L 22.90625 -55.875 L 3.078125 -55.875 C 2.023438 -55.875 1.203125 -56.164062 0.609375 -56.75 C 0.0234375 -57.34375 -0.265625 -58.109375 -0.265625 -59.046875 C -0.265625 -60.046875 0.0234375 -60.804688 0.609375 -61.328125 C 1.203125 -61.859375 2.023438 -62.125 3.078125 -62.125 L 50.0625 -62.125 C 51.113281 -62.125 51.929688 -61.859375 52.515625 -61.328125 C 53.109375 -60.804688 53.40625 -60.046875 53.40625 -59.046875 C 53.40625 -58.046875 53.109375 -57.265625 52.515625 -56.703125 C 51.929688 -56.148438 51.113281 -55.875 50.0625 -55.875 L 30.234375 -55.875 L 30.234375 -3.171875 C 30.234375 -1.992188 29.921875 -1.066406 29.296875 -0.390625 C 28.679688 0.273438 27.757812 0.609375 26.53125 0.609375 Z M 26.53125 0.609375 "/></g></g></g><g fill="#373643" fill-opacity="1"><g transform="translate(866.109773, 1042.848959)"><g><path d="M 10.3125 0.609375 C 9.132812 0.609375 8.238281 0.285156 7.625 -0.359375 C 7.007812 -1.003906 6.703125 -1.910156 6.703125 -3.078125 L 6.703125 -39.828125 C 6.703125 -41.003906 6.992188 -41.898438 7.578125 -42.515625 C 8.160156 -43.140625 9.015625 -43.453125 10.140625 -43.453125 C 11.253906 -43.453125 12.117188 -43.140625 12.734375 -42.515625 C 13.347656 -41.898438 13.65625 -41.003906 13.65625 -39.828125 L 13.65625 -32.6875 L 12.78125 -32.6875 C 13.71875 -36.15625 15.507812 -38.828125 18.15625 -40.703125 C 20.800781 -42.585938 24.0625 -43.585938 27.9375 -43.703125 C 28.8125 -43.765625 29.515625 -43.570312 30.046875 -43.125 C 30.578125 -42.6875 30.875 -41.941406 30.9375 -40.890625 C 30.988281 -39.890625 30.75 -39.09375 30.21875 -38.5 C 29.695312 -37.914062 28.878906 -37.566406 27.765625 -37.453125 L 26.34375 -37.28125 C 22.351562 -36.925781 19.285156 -35.644531 17.140625 -33.4375 C 14.992188 -31.238281 13.921875 -28.226562 13.921875 -24.40625 L 13.921875 -3.078125 C 13.921875 -1.910156 13.613281 -1.003906 13 -0.359375 C 12.382812 0.285156 11.488281 0.609375 10.3125 0.609375 Z M 10.3125 0.609375 "/></g></g></g><g fill="#373643" fill-opacity="1"><g transform="translate(897.644168, 1042.848959)"><g><path d="M 10.21875 0.4375 C 9.039062 0.4375 8.160156 0.0976562 7.578125 -0.578125 C 6.992188 -1.253906 6.703125 -2.207031 6.703125 -3.4375 L 6.703125 -39.484375 C 6.703125 -40.710938 6.992188 -41.648438 7.578125 -42.296875 C 8.160156 -42.941406 9.039062 -43.265625 10.21875 -43.265625 C 11.332031 -43.265625 12.210938 -42.941406 12.859375 -42.296875 C 13.503906 -41.648438 13.828125 -40.710938 13.828125 -39.484375 L 13.828125 -3.4375 C 13.828125 -2.207031 13.519531 -1.253906 12.90625 -0.578125 C 12.289062 0.0976562 11.394531 0.4375 10.21875 0.4375 Z M 10.21875 -53.140625 C 8.75 -53.140625 7.601562 -53.535156 6.78125 -54.328125 C 5.957031 -55.117188 5.546875 -56.191406 5.546875 -57.546875 C 5.546875 -58.953125 5.957031 -60.019531 6.78125 -60.75 C 7.601562 -61.488281 8.75 -61.859375 10.21875 -61.859375 C 11.75 -61.859375 12.910156 -61.488281 13.703125 -60.75 C 14.492188 -60.019531 14.890625 -58.953125 14.890625 -57.546875 C 14.890625 -56.191406 14.492188 -55.117188 13.703125 -54.328125 C 12.910156 -53.535156 11.75 -53.140625 10.21875 -53.140625 Z M 10.21875 -53.140625 "/></g></g></g><g fill="#373643" fill-opacity="1"><g transform="translate(918.079865, 1042.848959)"><g><path d="M 10.21875 16.484375 C 9.039062 16.484375 8.160156 16.171875 7.578125 15.546875 C 6.992188 14.929688 6.703125 14.035156 6.703125 12.859375 L 6.703125 -39.828125 C 6.703125 -41.003906 6.992188 -41.898438 7.578125 -42.515625 C 8.160156 -43.140625 9.015625 -43.453125 10.140625 -43.453125 C 11.304688 -43.453125 12.195312 -43.140625 12.8125 -42.515625 C 13.4375 -41.898438 13.75 -41.003906 13.75 -39.828125 L 13.75 -31.453125 L 12.78125 -32.6875 C 13.71875 -36.039062 15.582031 -38.703125 18.375 -40.671875 C 21.164062 -42.640625 24.5 -43.625 28.375 -43.625 C 32.195312 -43.625 35.53125 -42.726562 38.375 -40.9375 C 41.226562 -39.144531 43.429688 -36.585938 44.984375 -33.265625 C 46.546875 -29.941406 47.328125 -25.992188 47.328125 -21.421875 C 47.328125 -16.890625 46.546875 -12.960938 44.984375 -9.640625 C 43.429688 -6.328125 41.242188 -3.757812 38.421875 -1.9375 C 35.597656 -0.113281 32.25 0.796875 28.375 0.796875 C 24.5 0.796875 21.179688 -0.1875 18.421875 -2.15625 C 15.660156 -4.125 13.78125 -6.753906 12.78125 -10.046875 L 13.828125 -10.046875 L 13.828125 12.859375 C 13.828125 14.035156 13.503906 14.929688 12.859375 15.546875 C 12.210938 16.171875 11.332031 16.484375 10.21875 16.484375 Z M 26.875 -4.9375 C 29.582031 -4.9375 31.921875 -5.582031 33.890625 -6.875 C 35.859375 -8.164062 37.382812 -10.046875 38.46875 -12.515625 C 39.550781 -14.984375 40.09375 -17.953125 40.09375 -21.421875 C 40.09375 -26.765625 38.898438 -30.84375 36.515625 -33.65625 C 34.140625 -36.476562 30.925781 -37.890625 26.875 -37.890625 C 24.226562 -37.890625 21.90625 -37.257812 19.90625 -36 C 17.914062 -34.738281 16.375 -32.890625 15.28125 -30.453125 C 14.195312 -28.015625 13.65625 -25.003906 13.65625 -21.421875 C 13.65625 -16.128906 14.859375 -12.054688 17.265625 -9.203125 C 19.679688 -6.359375 22.882812 -4.9375 26.875 -4.9375 Z M 26.875 -4.9375 "/></g></g></g></svg>