<?xml version="1.0" encoding="utf-8"?>
<!-- Generator: Adobe Illustrator 24.3.0, SVG Export Plug-In . SVG Version: 6.00 Build 0)  -->
<svg version="1.1" xmlns="http://www.w3.org/2000/svg" xmlns:xlink="http://www.w3.org/1999/xlink" x="0px" y="0px"
	 viewBox="0 0 500 500" style="enable-background:new 0 0 500 500;" xml:space="preserve">
<style type="text/css">
	.st0{fill:#FFF4D7;}
	.st1{fill:#FFE69F;}
	.st2{clip-path:url(#XMLID_2_);}
	.st3{fill:#A7D8CC;}
	.st4{fill:#CBECE5;}
	.st5{fill:#F9D885;}
	.st6{fill:#F4C762;}
	.st7{fill:#FFFFFF;}
	.st8{fill:#F9C03B;}
	.st9{fill:#1A1D21;}
	.st10{font-family:'Bebas';}
	.st11{font-size:24.1097px;}
	.st12{fill:#23272D;}
	.st13{fill:#EFB033;}
	.st14{fill:#B8B6C6;}
	.st15{fill:#E24E5C;}
	.st16{fill:#7E5DAC;}
	.st17{fill:#664C91;}
	.st18{fill:#F4BF93;}
	.st19{fill:#EDB48A;}
	.st20{fill:#D1D0D6;}
	.st21{fill:#FEB885;}
	.st22{fill:#F2AC7C;}
	.st23{fill:#D9925A;}
	.st24{fill:#6E3A13;}
	.st25{fill:#D34257;}
	.st26{fill:#FEFFFF;}
</style>
<g id="BACKGROUND">
	<rect id="XMLID_41_" class="st0" width="500" height="500"/>
</g>
<g id="OBJECTS">
	<g id="XMLID_376_">
		
			<ellipse id="XMLID_382_" transform="matrix(0.7071 -0.7071 0.7071 0.7071 -71.2568 236.6223)" class="st1" cx="250" cy="204.33" rx="174.96" ry="174.96"/>
		<g id="XMLID_377_">
			<defs>
				
					<ellipse id="XMLID_378_" transform="matrix(0.7071 -0.7071 0.7071 0.7071 -71.2568 236.6223)" cx="250" cy="204.33" rx="174.96" ry="174.96"/>
			</defs>
			<clipPath id="XMLID_2_">
				<use xlink:href="#XMLID_378_"  style="overflow:visible;"/>
			</clipPath>
			<g id="XMLID_379_" class="st2">
				<polygon id="XMLID_381_" class="st3" points="65.02,390.38 65.02,359.83 94.9,359.83 94.9,255.29 115.39,255.29 115.39,189.52 
					109.88,189.52 109.88,176.18 170.17,176.18 170.17,255.29 192.78,254.75 192.78,108.1 228.01,108.64 228.01,101.58 264,101.58 
					264,86.47 291.12,86.47 291.12,182.41 356.62,182.41 356.62,282.84 377.42,282.84 377.42,346.83 405.26,346.83 405.26,371.55 
					424.96,371.55 424.96,390.38 				"/>
				<g>
					<rect x="270.64" y="125.66" class="st4" width="7.48" height="3.23"/>
					<rect x="254.82" y="155.19" class="st4" width="7.48" height="3.23"/>
					<rect x="254.82" y="140.43" class="st4" width="7.48" height="3.23"/>
					<rect x="254.82" y="169.95" class="st4" width="7.48" height="3.23"/>
					<rect x="254.82" y="125.66" class="st4" width="7.48" height="3.23"/>
					<rect x="254.82" y="184.71" class="st4" width="7.48" height="3.23"/>
					<rect x="122.96" y="190" class="st4" width="8.17" height="8.17"/>
					<rect x="122.96" y="207.85" class="st4" width="8.17" height="8.17"/>
					<rect x="141.79" y="190" class="st4" width="8.17" height="8.17"/>
					<rect x="141.79" y="207.85" class="st4" width="8.17" height="8.17"/>
					<rect x="122.96" y="225.69" class="st4" width="8.17" height="8.17"/>
					<rect x="141.79" y="225.69" class="st4" width="8.17" height="8.17"/>
				</g>
				<polygon id="XMLID_380_" class="st4" points="409.8,390.38 120.19,390.38 120.19,317.45 148.18,317.45 148.18,254.67 
					185.27,254.67 185.27,178.04 197.64,178.04 197.64,150.34 207.4,150.34 207.4,120.34 251.01,120.34 251.01,199.27 
					275.74,199.27 275.74,157.73 265,157.73 265,139.26 293.31,139.26 293.31,127.85 336.86,127.85 336.86,276.82 349.28,276.82 
					349.28,260.21 387.68,260.21 387.68,326.68 409.8,326.68 				"/>
				<g>
					<rect x="319.79" y="184.13" class="st3" width="11.02" height="3.23"/>
					<rect x="319.79" y="169.37" class="st3" width="11.02" height="3.23"/>
					<rect x="319.79" y="198.89" class="st3" width="11.02" height="3.23"/>
					<rect x="319.79" y="154.61" class="st3" width="11.02" height="3.23"/>
					<rect x="319.79" y="139.84" class="st3" width="11.02" height="3.23"/>
					<rect x="319.79" y="213.66" class="st3" width="11.02" height="3.23"/>
					<rect x="319.79" y="228.42" class="st3" width="11.02" height="3.23"/>
					<rect x="319.79" y="243.18" class="st3" width="11.02" height="3.23"/>
					<rect x="319.79" y="257.94" class="st3" width="11.02" height="3.23"/>
					<rect x="296.49" y="184.13" class="st3" width="11.02" height="3.23"/>
					<rect x="296.49" y="169.37" class="st3" width="11.02" height="3.23"/>
					<rect x="296.49" y="198.89" class="st3" width="11.02" height="3.23"/>
					<rect x="296.49" y="154.61" class="st3" width="11.02" height="3.23"/>
					<rect x="296.49" y="139.84" class="st3" width="11.02" height="3.23"/>
					<rect x="296.49" y="213.66" class="st3" width="11.02" height="3.23"/>
					<rect x="296.49" y="228.42" class="st3" width="11.02" height="3.23"/>
					<rect x="296.49" y="243.18" class="st3" width="11.02" height="3.23"/>
					<rect x="296.49" y="257.94" class="st3" width="11.02" height="3.23"/>
					<rect x="203.9" y="159.31" class="st3" width="6.51" height="3.23"/>
					<rect x="203.9" y="183.93" class="st3" width="6.51" height="3.23"/>
					<rect x="203.9" y="208.56" class="st3" width="6.51" height="3.23"/>
					<rect x="203.9" y="233.18" class="st3" width="6.51" height="3.23"/>
					<rect x="220.71" y="159.31" class="st3" width="6.51" height="3.23"/>
					<rect x="220.71" y="183.93" class="st3" width="6.51" height="3.23"/>
					<rect x="220.71" y="134.68" class="st3" width="6.51" height="3.23"/>
					<rect x="220.71" y="208.56" class="st3" width="6.51" height="3.23"/>
					<rect x="220.71" y="233.18" class="st3" width="6.51" height="3.23"/>
					<rect x="154.7" y="264.97" class="st3" width="8.17" height="8.17"/>
					<rect x="154.7" y="281.37" class="st3" width="8.17" height="8.17"/>
					<rect x="173.53" y="264.97" class="st3" width="8.17" height="8.17"/>
					<rect x="173.53" y="281.37" class="st3" width="8.17" height="8.17"/>
					<rect x="251.74" y="210.48" class="st3" width="8.17" height="8.17"/>
					<rect x="251.74" y="226.88" class="st3" width="8.17" height="8.17"/>
					<rect x="266.49" y="210.48" class="st3" width="8.17" height="8.17"/>
					<rect x="266.49" y="226.88" class="st3" width="8.17" height="8.17"/>
					<rect x="374.37" y="285.81" class="st3" width="7.93" height="7.93"/>
					<rect x="358.65" y="285.57" class="st3" width="8.17" height="8.17"/>
					<rect x="343.17" y="285.81" class="st3" width="7.93" height="7.93"/>
					<rect x="327.57" y="285.81" class="st3" width="7.93" height="7.93"/>
					<rect x="311.85" y="285.57" class="st3" width="8.17" height="8.17"/>
					<rect x="296.37" y="285.81" class="st3" width="7.93" height="7.93"/>
				</g>
			</g>
		</g>
	</g>
	<g>
		<rect x="84.86" y="414.11" class="st1" width="103.85" height="1.28"/>
		<rect x="48.75" y="374.13" class="st1" width="103.85" height="1.28"/>
		<rect x="165.1" y="451.89" class="st1" width="77.42" height="1.28"/>
		<rect x="299.71" y="457.65" class="st1" width="103.85" height="1.28"/>
		<rect x="26.38" y="383.05" class="st1" width="103.85" height="1.28"/>
		<rect x="331.5" y="383.61" class="st1" width="103.85" height="1.28"/>
		<rect x="361.89" y="373.48" class="st1" width="103.84" height="1.28"/>
		<rect x="361.89" y="413.47" class="st1" width="103.84" height="1.28"/>
		<rect x="61.12" y="407.24" class="st1" width="79.72" height="1.28"/>
	</g>
	<g>
		<g>
			<g>
				<path class="st5" d="M71.87,305.87c0.81-2.26,1.27-4.78,1.27-7.44c0-9.64-5.97-17.46-13.34-17.46s-13.34,7.81-13.34,17.46
					c0,2.66,0.46,5.18,1.27,7.44c-3.84,4.4-6.26,10.85-6.26,18.05c0,13.25,8.21,23.99,18.33,23.99c10.13,0,18.34-10.74,18.34-23.99
					C78.14,316.72,75.71,310.26,71.87,305.87z"/>
				<rect x="59.24" y="295.94" class="st1" width="1.12" height="79.05"/>
			</g>
			<g>
				<path class="st6" d="M99.77,326.33c0.57-1.59,0.89-3.36,0.89-5.24c0-6.79-4.2-12.29-9.39-12.29c-5.19,0-9.39,5.5-9.39,12.29
					c0,1.87,0.32,3.65,0.89,5.24c-2.7,3.1-4.41,7.64-4.41,12.71c0,9.33,5.78,16.89,12.91,16.89c7.13,0,12.91-7.56,12.91-16.89
					C104.18,333.97,102.47,329.42,99.77,326.33z"/>
				<rect x="90.88" y="319.34" class="st1" width="0.79" height="55.65"/>
			</g>
		</g>
		<g>
			<g>
				<path class="st5" d="M413.82,304.61c0.81-2.26,1.27-4.78,1.27-7.44c0-9.64-5.97-17.46-13.34-17.46
					c-7.37,0-13.34,7.81-13.34,17.46c0,2.66,0.46,5.18,1.27,7.44c-3.84,4.4-6.26,10.85-6.26,18.05c0,13.25,8.21,23.99,18.33,23.99
					c10.13,0,18.33-10.74,18.33-23.99C420.09,315.46,417.66,309.01,413.82,304.61z"/>
				<rect x="401.19" y="294.68" class="st1" width="1.12" height="79.05"/>
			</g>
			<g>
				<path class="st6" d="M376.05,325.07c0.57-1.59,0.89-3.36,0.89-5.24c0-6.79-4.2-12.29-9.39-12.29s-9.39,5.5-9.39,12.29
					c0,1.87,0.32,3.65,0.89,5.24c-2.7,3.1-4.41,7.64-4.41,12.71c0,9.33,5.78,16.89,12.91,16.89c7.13,0,12.91-7.56,12.91-16.89
					C380.47,332.71,378.76,328.17,376.05,325.07z"/>
				<rect x="367.16" y="318.08" class="st1" width="0.79" height="55.65"/>
			</g>
			<g>
				<path class="st6" d="M443.11,325.07c0.57-1.59,0.89-3.36,0.89-5.24c0-6.79-4.2-12.29-9.39-12.29c-5.19,0-9.39,5.5-9.39,12.29
					c0,1.87,0.32,3.65,0.89,5.24c-2.7,3.1-4.41,7.64-4.41,12.71c0,9.33,5.78,16.89,12.91,16.89c7.13,0,12.91-7.56,12.91-16.89
					C447.52,332.71,445.81,328.17,443.11,325.07z"/>
				<rect x="434.22" y="318.08" class="st1" width="0.79" height="55.65"/>
			</g>
		</g>
	</g>
	<g>
		<path id="XMLID_375_" class="st7" d="M411.44,142.06c0.25,0,0.49,0.05,0.74,0.07c1.59-4.13,5.58-7.07,10.27-7.07
			c1.8,0,3.49,0.44,4.98,1.2c1.79-5.87,7.25-10.15,13.71-10.15c6.33,0,11.68,4.1,13.59,9.79c0.25-0.02,0.5-0.04,0.75-0.04
			c6.08,0,11.01,4.93,11.01,11.01c0,6.08-4.93,11.01-11.01,11.01c-0.36,0-0.71-0.02-1.06-0.05l-0.01,0.05h-42.97
			c-4.37,0-7.91-3.54-7.91-7.91C403.52,145.61,407.07,142.06,411.44,142.06z"/>
		<path id="XMLID_374_" class="st7" d="M353.92,76.25c0.29,0,0.56,0.06,0.85,0.09c1.82-4.73,6.4-8.1,11.77-8.1
			c2.06,0,3.99,0.5,5.71,1.38c2.05-6.73,8.31-11.63,15.71-11.63c7.25,0,13.39,4.7,15.57,11.21c0.28-0.02,0.57-0.04,0.86-0.04
			c6.97,0,12.62,5.65,12.62,12.62c0,6.97-5.65,12.62-12.62,12.62c-0.41,0-0.81-0.02-1.21-0.06l-0.01,0.06h-49.24
			c-5.01,0-9.07-4.06-9.07-9.07C344.85,80.31,348.91,76.25,353.92,76.25z"/>
		<path id="XMLID_373_" class="st7" d="M89.69,167.63c-0.29,0-0.57,0.06-0.85,0.09c-1.83-4.77-6.44-8.15-11.85-8.15
			c-2.07,0-4.02,0.51-5.75,1.39c-2.07-6.77-8.36-11.7-15.81-11.7c-7.29,0-13.47,4.73-15.67,11.29c-0.29-0.02-0.57-0.04-0.86-0.04
			c-7.01,0-12.7,5.68-12.7,12.7c0,7.01,5.68,12.7,12.7,12.7c0.41,0,0.82-0.02,1.22-0.06l0.01,0.06h49.55c5.04,0,9.13-4.09,9.13-9.13
			C98.81,171.72,94.73,167.63,89.69,167.63z"/>
		<path id="XMLID_372_" class="st7" d="M192.53,71.02c-0.24,0-0.46,0.05-0.7,0.07c-1.5-3.9-5.26-6.67-9.69-6.67
			c-1.69,0-3.29,0.41-4.7,1.13c-1.69-5.54-6.84-9.57-12.93-9.57c-5.97,0-11.02,3.87-12.81,9.23c-0.23-0.02-0.47-0.04-0.71-0.04
			c-5.73,0-10.38,4.65-10.38,10.38c0,5.73,4.65,10.38,10.38,10.38c0.34,0,0.67-0.02,1-0.05l0.01,0.05h40.53
			c4.12,0,7.46-3.34,7.46-7.46C199.99,74.36,196.65,71.02,192.53,71.02z"/>
	</g>
	<g>
		
			<ellipse transform="matrix(0.2412 -0.9705 0.9705 0.2412 -159.4326 262.9518)" class="st8" cx="88.44" cy="233.43" rx="36.91" ry="36.91"/>
		<g>
			<g>
				<path class="st9" d="M110.25,248.49c3.16-4.26,5.05-9.51,5.05-15.21c0-14.13-11.49-25.62-25.62-25.62
					c-2.21,0-4.36,0.29-6.43,0.83l-4.12-0.81c-0.29-0.06-0.58,0.05-0.77,0.28c-0.18,0.23-0.22,0.54-0.1,0.81l0.6,1.31
					c-6.68,3.12-11.89,9.04-13.91,16.47c-0.11,0.42,0.13,0.85,0.55,0.96c0.42,0.11,0.85-0.13,0.96-0.55
					c1.89-6.97,6.78-12.52,13.05-15.45l0.72,1.58c0.12,0.26,0.37,0.43,0.65,0.46c0.02,0,0.04,0,0.06,0c0.26,0,0.51-0.13,0.65-0.35
					l2.15-3.22c1.91-0.49,3.9-0.75,5.94-0.75c13.26,0,24.05,10.79,24.05,24.05c0,5.28-1.73,10.15-4.62,14.12l-1.71-1.63
					c-0.23-0.22-0.56-0.28-0.85-0.15c-0.29,0.12-0.48,0.41-0.48,0.72v4.49c-4.3,4.02-10.06,6.5-16.4,6.5
					c-0.43,0-0.79,0.35-0.79,0.79s0.35,0.79,0.79,0.79c6.77,0,12.92-2.66,17.51-6.97l3.97-0.91c0.28-0.06,0.51-0.28,0.58-0.56
					c0.08-0.28-0.01-0.58-0.22-0.78L110.25,248.49z"/>
				<path class="st9" d="M61.61,235.94c-0.37-2.69,3.08-5.94,6.17-6.48c2.62-0.46,5.11,5.63,5.11,7.07c0,1.11-3.28,2.04-3.14,3.14
					c0.85,6.87,8.05,11,8.05,11s3.05-2.62,4.12-2.16c3.99,1.7,5.55,5.67,5.24,6.74c-0.31,1.05-3.93,5.04-8.57,3.67
					C72.04,256.98,63.52,249.88,61.61,235.94z"/>
			</g>
			<text transform="matrix(1 0 0 1 79.6002 241.4525)" class="st9 st10 st11">24</text>
		</g>
	</g>
	<g>
		
			<ellipse transform="matrix(0.7071 -0.7071 0.7071 0.7071 -39.488 351.1497)" class="st8" cx="404.13" cy="223.24" rx="36.91" ry="36.91"/>
		<path class="st9" d="M420.71,216c0-9.16-7.42-16.59-16.57-16.59c-9.16,0-16.59,7.43-16.59,16.59c0,0-1.44,15.54,15.81,31.07
			C403.37,247.07,421.49,230.77,420.71,216z M404.14,223.13c-3.95,0-7.14-3.18-7.14-7.13c0-3.95,3.2-7.13,7.14-7.13
			c3.93,0,7.13,3.18,7.13,7.13C411.27,219.94,408.07,223.13,404.14,223.13z"/>
	</g>
	<g>
		
			<ellipse transform="matrix(0.2154 -0.9765 0.9765 0.2154 -31.2969 261.7978)" class="st8" cx="147.26" cy="150.37" rx="36.91" ry="36.91"/>
		<g>
			<g>
				<path class="st9" d="M161.13,166.61h-34.07c-0.78,0-1.4-0.63-1.4-1.4c0-0.78,0.63-1.4,1.4-1.4h32.91l4.99-25.21
					c0.13-0.66,0.71-1.13,1.38-1.13h9.21c0.78,0,1.4,0.63,1.4,1.4c0,0.78-0.63,1.4-1.4,1.4h-8.06l-4.99,25.21
					C162.38,166.13,161.8,166.61,161.13,166.61z"/>
			</g>
			<g>
				<path class="st9" d="M157.27,162.39h-25.99c-0.67,0-1.25-0.48-1.38-1.14l-4.21-22.13c-0.08-0.41,0.03-0.84,0.3-1.16
					c0.27-0.32,0.66-0.51,1.08-0.51h34.42c0.42,0,0.82,0.19,1.08,0.51c0.27,0.32,0.38,0.75,0.3,1.16l-4.22,22.13
					C158.52,161.91,157.94,162.39,157.27,162.39z M132.44,159.58h23.66l3.68-19.32h-31.02L132.44,159.58z"/>
			</g>
			<g>
				<path class="st9" d="M138.94,162.39c-0.78,0-1.4-0.63-1.4-1.4v-22.13c0-0.78,0.63-1.4,1.4-1.4c0.78,0,1.4,0.63,1.4,1.4v22.13
					C140.35,161.76,139.72,162.39,138.94,162.39z"/>
			</g>
			<g>
				<path class="st9" d="M149.83,162.39c-0.78,0-1.4-0.63-1.4-1.4v-22.13c0-0.78,0.63-1.4,1.4-1.4s1.4,0.63,1.4,1.4v22.13
					C151.24,161.76,150.61,162.39,149.83,162.39z"/>
			</g>
			<g>
				<path class="st9" d="M158.67,155.02h-28.8c-0.78,0-1.4-0.63-1.4-1.4s0.63-1.4,1.4-1.4h28.8c0.78,0,1.4,0.63,1.4,1.4
					S159.45,155.02,158.67,155.02z"/>
			</g>
			<g>
				<path class="st9" d="M160,148.05h-30.69c-0.78,0-1.4-0.63-1.4-1.4c0-0.78,0.63-1.4,1.4-1.4H160c0.78,0,1.4,0.63,1.4,1.4
					C161.4,147.42,160.77,148.05,160,148.05z"/>
			</g>
			<g>
				<path class="st9" d="M137.96,169.18c0,1.21-0.98,2.19-2.19,2.19c-1.21,0-2.19-0.98-2.19-2.19s0.98-2.19,2.19-2.19
					C136.98,166.99,137.96,167.97,137.96,169.18z"/>
			</g>
			<g>
				<path class="st9" d="M154.97,169.18c0,1.21-0.98,2.19-2.19,2.19c-1.21,0-2.19-0.98-2.19-2.19s0.98-2.19,2.19-2.19
					C153.99,166.99,154.97,167.97,154.97,169.18z"/>
			</g>
		</g>
	</g>
	<g>
		
			<ellipse transform="matrix(0.7071 -0.7071 0.7071 0.7071 16.6112 228.8723)" class="st8" cx="284.58" cy="94.38" rx="36.91" ry="36.91"/>
		<g>
			<path class="st9" d="M299.47,83.61l2.45-2.88c0.56-0.66,0.48-1.65-0.18-2.22c-0.66-0.56-1.65-0.48-2.22,0.18l-2.36,2.77
				c-3.09-2.47-6.92-4.05-11.09-4.36l-0.01-2.5c0-0.04-0.01-0.07-0.01-0.11l4.3-0.02c0.87,0,1.57-0.71,1.57-1.58
				c0-0.87-0.71-1.57-1.58-1.57l-11.88,0.05c-0.87,0-1.57,0.71-1.57,1.58c0,0.87,0.71,1.57,1.58,1.57l4.46-0.02
				c0,0.04-0.01,0.07-0.01,0.11l0.01,2.5c-10.39,0.85-18.56,9.6-18.52,20.19c0.05,11.13,9.14,20.14,20.27,20.09
				c11.13-0.05,20.14-9.14,20.09-20.27C304.75,91.93,302.74,87.18,299.47,83.61z M284.67,114.26c-9.39,0.04-17.07-7.57-17.11-16.96
				c-0.04-9.39,7.57-17.07,16.96-17.11c9.39-0.04,17.07,7.57,17.11,16.96C301.67,106.55,294.06,114.22,284.67,114.26z"/>
			<path class="st9" d="M284.46,84.02l0.06,13.21l-8.83,9.82c2.44,2.19,5.61,3.4,8.89,3.39c7.25-0.03,13.19-6.02,13.15-13.27
				C297.7,89.92,291.71,83.99,284.46,84.02z"/>
		</g>
	</g>
	<g>
		<polygon class="st12" points="264.11,393.93 241.62,371.02 237.79,371.93 262.09,396.71 		"/>
		
			<rect x="244.1" y="363.23" transform="matrix(0.3693 -0.9293 0.9293 0.3693 -193.6718 464.9817)" class="st12" width="3.26" height="23.88"/>
		<g>
			<g>
				<path class="st8" d="M236.74,354.64c0,0-6.28,4.62-6.91,12.26l32.33,13.67c0,0,4.61-7.83-1.46-11.4
					c-6.06-3.57-11.97-8.07-11.52-12.43L236.74,354.64z"/>
				<path class="st13" d="M262.15,380.57l-21.89-9.25c1.1-0.33,2.21-0.56,3.17-0.56c4.11-0.03,7.06-2.09,6.32-5.56
					c-1.31-6.14-13.02-10.55-13.02-10.55l12.44,2.11c-0.45,4.37,5.46,8.86,11.52,12.43C266.76,372.75,262.15,380.57,262.15,380.57z"
					/>
				<path class="st14" d="M239.41,361.4c0.42,1.62-0.55,3.28-2.18,3.7c-1.62,0.42-3.28-0.55-3.7-2.18c-0.42-1.62,0.55-3.28,2.18-3.7
					C237.33,358.8,238.99,359.78,239.41,361.4z"/>
				<path class="st12" d="M252.98,362.87c-0.89,0.41-2.12,1.1-3.25,2.2c-0.42,0.39-0.82,0.83-1.19,1.34c0,0-0.94-0.27-0.62-0.74
					c0,0,0.61-0.68,1.52-1.47c0.82-0.7,1.88-1.5,2.98-1.96C252.6,362.45,252.78,362.66,252.98,362.87z"/>
				<path class="st12" d="M255.46,365.33c-1.21,0.54-3.1,1.62-4.54,3.59c0,0-0.94-0.27-0.62-0.74c0,0,2.19-2.46,4.51-3.45
					C255.02,364.94,255.23,365.13,255.46,365.33z"/>
				<path class="st12" d="M258.51,367.76c-1.19,0.49-3.25,1.57-4.81,3.69c0,0-0.94-0.27-0.62-0.74c0,0,2.28-2.57,4.66-3.51
					C258,367.4,258.25,367.58,258.51,367.76z"/>
				<path class="st14" d="M263.01,378.71c-0.42,1.12-0.85,1.86-0.85,1.86l-32.33-13.67c0.07-0.84,0.2-1.63,0.4-2.39L263.01,378.71z"
					/>
			</g>
			<path class="st12" d="M254.11,283.69c0,0,51.59,36.45,44.62,43.42c-6.97,6.97-49.56,29.65-49.56,29.65l-12.43-2.11
				c14.2-25.48,32.41-30.57,32.41-30.57c-12.64-9.77-54.1-16.64-49.97-36.7C220.67,280.15,242.13,280.5,254.11,283.69z"/>
			<path class="st9" d="M298.73,327.1c-6.97,6.97-49.56,29.64-49.56,29.64l-12.43-2.11c0,0,0,0,0.01-0.01
				c0.28-0.26,4.95-4.46,13.09-7.15c23.51-7.79,36.65-23.4,36.65-23.4c-2.21-2.21-9.34-1.32-9.34-1.32
				c6.36-3.55,11.82-1.12,11.82-1.12s-5.31-21.58-29.84-14.71c-7.11,1.99-14.57,2.62-21.56,2.51
				c-11.29-5.42-20.44-12.11-18.39-22.06c1.49-7.22,22.94-6.87,34.92-3.69C254.11,283.68,305.7,320.14,298.73,327.1z"/>
		</g>
		<path class="st7" d="M180.82,452.47c-3.75-3.1-14.89-6.27-19.53-7.73c-4.64-1.46-10.29-0.8-13.47,2.87
			c-3.97-3.54-8.59-6.74-13.81-7.73c-9.63-1.83-9.24,5.07-9.24,5.07c-1.39-0.68-6.31-7.76-14.29-6.64c-3.58,0.5-4.16,3.75-3.61,7.32
			c-2.64-0.68-10.98-13.95-27.59-8.06c-5.25,1.86-1.44,12.57,8.6,14.9H180.82z"/>
		<path class="st7" d="M372.55,452.47c-3.75-3.1-14.89-6.27-19.53-7.73c-4.64-1.46-10.29-0.8-13.47,2.87
			c-3.97-3.54-8.59-6.74-13.81-7.73c-9.63-1.83-9.24,5.07-9.24,5.07c-1.39-0.68-6.31-7.76-14.29-6.64c-3.58,0.5-4.16,3.75-3.61,7.32
			c-2.64-0.68-10.98-13.95-27.59-8.06c-5.25,1.86-1.44,12.57,8.6,14.9H372.55z"/>
		<g>
			<g>
				<path class="st12" d="M184.29,346.22c-29.34,0-53.12,23.78-53.12,53.12c0,29.33,23.78,53.12,53.12,53.12
					c29.34,0,53.12-23.79,53.12-53.12C237.42,370,213.63,346.22,184.29,346.22z M184.29,442.88c-24.04,0-43.54-19.5-43.54-43.54
					c0-24.05,19.5-43.55,43.54-43.55c24.04,0,43.54,19.5,43.54,43.55C227.83,423.39,208.34,442.88,184.29,442.88z"/>
				<path class="st15" d="M184.29,352.25c-26.01,0-47.1,21.08-47.1,47.1c0,26.01,21.09,47.09,47.1,47.09s47.1-21.08,47.1-47.09
					C231.39,373.33,210.3,352.25,184.29,352.25z M184.29,442.88c-24.04,0-43.54-19.5-43.54-43.54c0-24.05,19.5-43.55,43.54-43.55
					c24.04,0,43.54,19.5,43.54,43.55C227.83,423.39,208.34,442.88,184.29,442.88z"/>
			</g>
			<path class="st14" d="M137.67,362.27c-0.65,1.48,2.49,6.94,5.27,3.76c4.68-5.39,20.91-22.42,45.57-19.64
				c26.96,3.04,37.63,21.67,41.43,25.47c2.11,2.11,6.16-0.12,5.81-2.26c-1.03-6.3-18.02-26.59-46.24-29.58
				C161.28,337.03,140.78,355.21,137.67,362.27z"/>
		</g>
		<g>
			<g>
				<path class="st12" d="M369.95,346.22c-29.34,0-53.12,23.78-53.12,53.12c0,29.33,23.78,53.12,53.12,53.12
					c29.34,0,53.12-23.79,53.12-53.12C423.07,370,399.29,346.22,369.95,346.22z M369.95,442.88c-24.04,0-43.54-19.5-43.54-43.54
					c0-24.05,19.5-43.55,43.54-43.55c24.04,0,43.54,19.5,43.54,43.55C413.49,423.39,393.99,442.88,369.95,442.88z"/>
				<path class="st15" d="M369.95,352.25c-26.01,0-47.1,21.08-47.1,47.1c0,26.01,21.09,47.09,47.1,47.09s47.1-21.08,47.1-47.09
					C417.05,373.33,395.96,352.25,369.95,352.25z M369.95,442.88c-24.04,0-43.54-19.5-43.54-43.54c0-24.05,19.5-43.55,43.54-43.55
					c24.04,0,43.54,19.5,43.54,43.55C413.49,423.39,393.99,442.88,369.95,442.88z"/>
			</g>
			<path class="st14" d="M395.99,346.76c0,0-1.18,5.48-3.29,4.98c-5.01-1.2-36.16-13.66-59.86,12.05
				c-20.65,22.4-16.04,45.38-7.85,62.4c1.45,3.01-5.45,5.16-5.45,5.16s-22.82-36.53,7.55-71.08
				C350.75,333.35,381.36,340.95,395.99,346.76z"/>
			<g>
				<circle class="st14" cx="369.95" cy="399.34" r="10.11"/>
				<path class="st12" d="M375.76,399.34c0,3.21-2.6,5.82-5.82,5.82c-3.21,0-5.82-2.6-5.82-5.82s2.6-5.82,5.82-5.82
					C373.16,393.52,375.76,396.13,375.76,399.34z"/>
			</g>
		</g>
		<path class="st8" d="M371.81,394.73l-25.1-26.42l-17.11-53.1l6.63-0.61c6.86-0.63,12.18-6.27,12.39-13.17
			c0-0.14,0.01-0.28,0.01-0.42c0-7.67-6.37-13.88-14.1-13.62l-9.43,0.33v7.6l9.41-0.49c3.36-0.18,6.21,2.45,6.28,5.83v0.14
			c0,3.16-2.47,5.79-5.66,5.96l-7.11,0.38c-3.43,0.18-5.76,3.56-4.74,6.84l-83.22,8.02l-5.77-13.53l-7.28,2.5l5,10.67l-54.18,82.77
			h99.6c2.65,0,5.14-1.32,6.62-3.52l44.35-65.76l12.4,37.47l26.13,26.82c1.49,1.52,3.98,1.32,5.2-0.41
			c0.41-0.59,0.61-1.27,0.61-1.94C372.74,396.21,372.43,395.38,371.81,394.73z M190.95,398.31l43.06-67.18l22.52,65.61
			L190.95,398.31z M276.8,396.74h-13.92l-21.36-66.61l82.58-8.5l1.72,4.34L276.8,396.74z"/>
		<polygon class="st13" points="327.63,326.24 278.24,398.41 262.89,398.61 241.52,330.13 262.89,396.74 276.8,396.74 
			325.82,325.97 324.11,321.63 241.52,330.13 324.32,319.28 		"/>
		<polygon class="st13" points="258.65,398.09 188.02,399.61 234.01,331.13 190.95,398.31 256.54,396.74 234.01,331.13 		"/>
		<polygon class="st13" points="323.29,313.97 240.39,324.07 240.07,321.99 		"/>
		<g>
			<path class="st16" d="M230.34,299.66c0,0-30.72-9.11-30.72,1.57c0,10.68,8.35,12.25,8.35,12.25s38.67-3.65,42.47-7.22
				C254.24,302.68,230.34,299.66,230.34,299.66z"/>
			<path class="st17" d="M250.45,306.26c-2.97,2.78-27.12,5.61-37.62,6.72c-5.48-3.39-10.24-9.13-13.04-12.97
				c2.33-8.72,30.56-0.35,30.56-0.35S254.24,302.68,250.45,306.26z"/>
		</g>
		<path class="st13" d="M372.74,397.06c0,0.67-0.2,1.36-0.61,1.94c-1.14,1.63-3.39,1.9-4.9,0.68c3.12-0.59,4.06-2.83,3.36-3.52
			c-0.86-0.86-25.14-26.51-25.14-26.51l-17.82-56.26c0,0,12.23,0.96,16.47-4.26c4.21-5.2,2.88-14.64,2.88-14.64
			c1.06,1.93,1.66,4.15,1.66,6.5c0,0.14-0.01,0.28-0.01,0.42c-0.21,6.89-5.53,12.54-12.39,13.17l-6.63,0.61l17.11,53.1l25.1,26.42
			C372.43,395.38,372.74,396.21,372.74,397.06z"/>
		<path class="st13" d="M342.1,300.28c-0.63,5.34-2.71,7.15-5.79,7.15c-2.96,0-9.2-0.04-9.64-0.04c0.42-0.15,0.88-0.24,1.36-0.26
			l7.11-0.38c3.18-0.17,5.66-2.8,5.66-5.96v-0.14c-0.08-3.25-2.69-5.8-5.87-5.84l0.39-2.13
			C335.32,292.68,342.74,294.95,342.1,300.28z"/>
		<path class="st18" d="M315.33,284.63c0,0,8.5-4.61,13.65-2.99c4.01,1.27,11.61,10.36,8.17,13.8c-3.44,3.44-11.6,2.54-12.87,2.58
			c-3.8,0.1-13.66-5.87-13.66-5.87L315.33,284.63z"/>
		<path class="st19" d="M337.15,295.44c-3.43,3.44-11.6,2.55-12.86,2.58c-3.68,0.09-13.06-5.51-13.63-5.86
			c4.71,2.34,12.64,3.2,14.45,3.2c1.8,0,6.97-3.65,5.06-7.99c-1.9-4.34-14.83-2.75-14.83-2.75s8.5-4.61,13.66-2.99
			C333,282.91,340.6,292.01,337.15,295.44z"/>
		<circle class="st15" cx="325.88" cy="290.51" r="6.82"/>
		<path class="st12" d="M328.99,290.51c0,1.72-1.39,3.11-3.11,3.11c-1.72,0-3.11-1.39-3.11-3.11c0-1.72,1.39-3.11,3.11-3.11
			C327.6,287.4,328.99,288.79,328.99,290.51z"/>
		<g>
			<polygon class="st9" points="175,404.87 136.15,331.72 139.03,330.2 176.85,401.41 189.81,400.1 201.13,331.19 204.34,331.72 
				192.62,403.09 			"/>
		</g>
		<g>
			<g>
				<polygon class="st12" points="266.07,413.49 183.78,405.47 183.78,392.85 266.07,384.86 266.17,385.94 184.86,393.84 
					184.86,404.48 266.17,412.41 				"/>
			</g>
			<g>
				<g>
					<path class="st15" d="M263.47,414.46c-1.03,0-2.07-0.1-3.11-0.3c-8.56-1.64-14.23-9.71-12.64-17.99
						c1.59-8.27,9.85-13.67,18.4-12.02c4.14,0.79,7.73,3.09,10.12,6.48c2.4,3.4,3.3,7.49,2.53,11.51l0,0
						c-0.77,4.02-3.12,7.48-6.61,9.75C269.55,413.58,266.55,414.46,263.47,414.46z M263.04,386.9c-5.95,0-11.21,4.03-12.33,9.85
						c-1.27,6.63,3.32,13.1,10.23,14.42c3.36,0.64,6.75-0.01,9.56-1.83c2.79-1.82,4.66-4.58,5.28-7.78l0,0
						c0.61-3.2-0.1-6.46-2.02-9.18c-1.93-2.74-4.85-4.6-8.2-5.24C264.7,386.98,263.86,386.9,263.04,386.9z"/>
				</g>
				<circle class="st14" cx="263.24" cy="399.16" r="10.11"/>
				<circle class="st12" cx="263.24" cy="399.16" r="5.82"/>
			</g>
			<g>
				
					<ellipse transform="matrix(0.5672 -0.8236 0.8236 0.5672 -248.9833 324.5603)" class="st12" cx="184.29" cy="399.16" rx="13.77" ry="13.77"/>
				
					<ellipse transform="matrix(0.9248 -0.3803 0.3803 0.9248 -137.9649 100.0901)" class="st14" cx="184.29" cy="399.16" rx="10.11" ry="10.11"/>
				<path class="st20" d="M190.13,399.16c0,3.21-2.6,5.82-5.82,5.82c-3.21,0-5.82-2.6-5.82-5.82c0-3.21,2.6-5.82,5.82-5.82
					C187.53,393.35,190.13,395.95,190.13,399.16z"/>
			</g>
		</g>
		<polygon class="st12" points="257.1,431.55 257.77,434.39 281,428.52 280.45,425.31 		"/>
		<g>
			<path class="st8" d="M249.71,419.05c0,0-2.12,7.5,2.07,13.92l33.91-9.07c0,0-1.17-9.01-8.15-8.1s-16.03-0.6-18.37-4.31
				L249.71,419.05z"/>
			<path class="st13" d="M285.69,423.91l-22.95,6.14c0.67-0.94,1.4-1.8,2.16-2.39c3.22-2.55,4.28-5.99,1.57-8.27
				c-4.8-4.04-16.76-0.33-16.76-0.33l9.47-7.56c2.33,3.72,11.39,5.23,18.36,4.32C284.52,414.9,285.69,423.91,285.69,423.91z"/>
			<path class="st14" d="M255.97,422.74c1.33,1.02,1.58,2.93,0.56,4.26c-1.02,1.33-2.93,1.58-4.26,0.56
				c-1.33-1.02-1.58-2.93-0.56-4.26C252.73,421.97,254.64,421.72,255.97,422.74z"/>
			<path class="st12" d="M267.57,415.57c-0.45,0.87-0.99,2.17-1.22,3.73c-0.09,0.56-0.14,1.16-0.12,1.79c0,0-0.91,0.37-0.94-0.2
				c0,0,0.06-0.91,0.3-2.1c0.21-1.06,0.56-2.33,1.15-3.38C267.02,415.47,267.29,415.53,267.57,415.57z"/>
			<path class="st12" d="M271.04,415.99c-0.62,1.16-1.45,3.18-1.38,5.62c0,0-0.91,0.37-0.94-0.2c0,0,0.21-3.29,1.44-5.49
				C270.45,415.95,270.74,415.97,271.04,415.99z"/>
			<path class="st12" d="M274.94,416.03c-0.64,1.11-1.6,3.23-1.53,5.87c0,0-0.91,0.37-0.94-0.2c0,0,0.23-3.43,1.53-5.63
				C274.31,416.06,274.62,416.05,274.94,416.03z"/>
			<path class="st14" d="M285.22,421.92c0.36,1.14,0.47,1.99,0.47,1.99l-33.9,9.07c-0.46-0.71-0.84-1.42-1.15-2.13L285.22,421.92z"
				/>
		</g>
		<path class="st14" d="M206.5,328.72h-70.49c-1.33,0-2.41,1.08-2.41,2.41c0,1.33,1.08,2.41,2.41,2.41h70.49
			c1.33,0,2.41-1.08,2.41-2.41C208.91,329.8,207.83,328.72,206.5,328.72z"/>
		<rect x="139.76" y="285.12" class="st21" width="56.17" height="43.6"/>
		<rect x="162.35" y="285.12" class="st22" width="9.77" height="11.95"/>
		<rect x="162.35" y="316.77" class="st22" width="9.77" height="11.95"/>
		<g>
			<rect x="142.55" y="263.33" class="st23" width="51.77" height="21.8"/>
			<rect x="142.55" y="269.54" class="st21" width="8.56" height="9.36"/>
			<rect x="185.76" y="269.54" class="st21" width="8.56" height="9.36"/>
		</g>
		<g>
			<rect x="136.46" y="254.28" class="st22" width="51.77" height="9.04"/>
			<rect x="136.46" y="256.86" class="st23" width="8.56" height="3.88"/>
			<rect x="179.67" y="256.86" class="st23" width="8.56" height="3.88"/>
		</g>
		<rect x="166.03" y="254.28" class="st24" width="2.4" height="74.44"/>
		<rect x="143.24" y="311.73" class="st23" width="12.48" height="13.16"/>
		<path class="st12" d="M203.19,271.74c0,0-8.28,20.48,1.67,34.01c9.95,13.54,30.44,42.71,30.44,42.71l14.41,70.6l9.46-7.56
			l-1.55-67.07l-16.31-58.37L203.19,271.74z"/>
		<path class="st9" d="M254.11,409.45c0-2.87,1.39-55.12-3.04-59.55c-4.3-4.3-9.55-2.53-9.87-2.43c3.51-3.51,11.64-3.54,11.64-3.54
			s-15.71-39.62-38.6-47.57c-7.06-2.45-11.51-5.32-14.27-8.12c0.17-8.97,3.22-16.51,3.22-16.51l38.11,14.33l16.31,58.37l1.55,67.07
			l-9.47,7.55C249.7,419.06,254.11,412.33,254.11,409.45z"/>
		<path class="st8" d="M249.01,219.16c-39.62,19.71-53.08,56.92-53.08,56.92s29.94,19.18,61.78,7.61c0,0,12.24-23.94,33.73-51.12
			c0,0-15.25-20.13-16.3-20.13C270.32,212.44,255.95,215.71,249.01,219.16z"/>
		<path class="st13" d="M288.97,235.73c-19.95,25.85-31.26,47.96-31.26,47.96c-31.83,11.57-61.77-7.61-61.77-7.61
			s0.64-1.77,2.04-4.73c9.36,3.01,17.56,7.09,37.09,4.51c9.75-1.29,19.62-13.97,19.23-19.78c-5.23-4.45-5.23-4.45-3.61-12.52
			c1.43,5.88,4.78,10.22,4.91,6.33c-0.62-7.53-0.4-18.47,7.33-25.24c2.63-2.31,9.97-1.82,12.87,1.18
			c2.42,2.51,1.45-10.79,1.45-10.79C279.12,215.92,284.85,224.94,288.97,235.73z"/>
		<path class="st12" d="M286.36,212.66c0.7-1.18,3.89-3.87,5.25-6.17l7.36-5.21l5.49-14.6l-8.6-3.75c0,0-9.1-3.19-9.85,9.44
			c0,0-3.63-1.15-4.66,1.62c-1.02,2.74,2.94,3.33,2.94,3.33s-5.52-2.06-6,1.76c-0.36,2.93,5.56,3.83,5.56,3.83s-7.06-1.55-5.5,2.88
			c1.37,3.89,6.93,1.42,6.93,1.42s-5.66,2.1-5.08,3.12C281.78,213.05,285.69,213.78,286.36,212.66z"/>
		<path class="st18" d="M316.14,200.96c0,0,4.76,11.34,4.76,12.2c0,2.69-6.52,0.44-6.52,0.44s2.41,13.94-1.2,14.24
			c-4.75,0.39-16.95-3.14-16.95-3.14l-6.94,5.8l-5.93-14.32l8.24-9.69c0,0-4.25-12.43,2.77-11.77c4.5,0.42,5.03,6.67,5.03,6.67
			s2.98-13.43,5.05-14.7S317.98,183.99,316.14,200.96z"/>
		<path class="st19" d="M313.18,227.85c-4.74,0.39-16.95-3.14-16.95-3.14l-6.94,5.79l-5.92-14.32l2.99-3.52
			c4.87,9.29,7.98,8.68,9.74,9.46c2.01,0.89,13.5,4.52,15.86,2.42c2.47-2.21,2.59-9.49,2.45-10.73
			C314.69,215.52,316.52,227.57,313.18,227.85z"/>
		<path class="st19" d="M316.2,200.31c-5.85-1.14-13.41-1.82-16.79,1.07c0,0,2.97-13.42,5.04-14.7
			C306.5,185.42,317.68,184.03,316.2,200.31z"/>
		<path class="st19" d="M294.34,204.09c0,0,3.96-0.54,3.36-3.15c-0.56-2.46-2.04-3.96-3.47-3.55
			C292.82,197.8,291.63,200.87,294.34,204.09z"/>
		<path class="st15" d="M284.02,210.64c1.33,0.41,8.93,13.34,9.43,18.82c0.13,1.49-5.03,7-5.03,7
			c-5.15-15.2-13.27-24.02-13.27-24.02S281.86,209.96,284.02,210.64z"/>
		<path class="st25" d="M288.41,236.46c-3.56-10.49-8.52-17.95-11.26-21.57c1.4,1.66,9.71,11.43,11.69,10.41
			c2.17-1.13-3.41-13.1-3.41-13.1l0.01,0c2.64,3.68,7.61,12.85,8,17.26C293.58,230.94,288.41,236.46,288.41,236.46z"/>
		<path class="st12" d="M298.72,193.68c-0.08,1.2,0.21,5,0.69,7.68c0.33,1.85,1.19,2.61,2.66,2.31c1.7-0.36,0.87-3.26,0.71-4.26
			c0.25,1.05,1.42,2.3,2.65,1.64c1.3-0.7-0.54-5.43-1.99-7.31L298.72,193.68z"/>
		<path class="st19" d="M310.74,218.53c0,0-1.92,4.19-6.35,2.6c-4.44-1.59-2.85-6.35-2.85-6.35l2.78,5.16L310.74,218.53z"/>
		<path class="st26" d="M310.74,218.53c0,0-5.36,0.87-9.2-3.75c0,0,0.05,3.93,2.78,5.16C307.65,221.43,309.56,220.21,310.74,218.53z
			"/>
		<path class="st13" d="M316.23,195.26c0,0,25.21,6,22.92,7.41c-2.28,1.41-21.49-3.9-21.49-3.9L316.23,195.26z"/>
		<path class="st15" d="M286.01,192.37l31.66,6.41l0.52-1.79c0,0,4.29-9.12,2.07-12.71c-2.22-3.59-14.28-6.18-14.28-6.18
			s0.52-2.2-0.84-2.29c-1.79-0.11-1.71,2.12-1.71,2.12s-7.21-1.65-12.54,1.65C285.55,182.87,286.01,192.37,286.01,192.37z"/>
		<path class="st25" d="M318.19,196.99l-0.52,1.78l-31.66-6.4c0,0-0.04-0.87,0.04-2.18c2-0.1,4.03,0.4,6.01,0.78
			c2.55,0.5,5.34,0.77,7.59-0.53c0.88-0.51,1.69-1.25,2.7-1.28c1.46-0.05,2.45,1.38,3.59,2.3c2.13,1.72,5.23,1.7,7.8,0.78
			c1.19-0.42,2.36-1.05,3.1-2.07c1.36-1.85,0.93-4.59-0.47-6.4c-1.4-1.82-3.56-2.89-5.71-3.68c-1.93-0.71-3.92-1.25-5.96-1.39
			c0.45-0.87,0.38-1.97-0.13-2.82c0.17-0.06,0.35-0.08,0.57-0.07c1.36,0.09,0.84,2.28,0.84,2.28s12.06,2.59,14.28,6.18
			S318.19,196.99,318.19,196.99z"/>
		<path class="st25" d="M303.07,178.87c0,0-4.66,0.51-6.74,7.89C296.32,186.76,299.52,181.52,303.07,178.87z"/>
		<path class="st8" d="M258.19,251.16c1.32,10.68,4.66,21.49,11.83,27.74c9.87,8.61,24.36,10.79,40.61,13.23c0,0,3.26-2.27,4.7-7.51
			c0,0-23.01-5.2-32.89-15.08c-6.34-6.34-5.1-25.1-5.29-35.94c-0.1-5.58-4.53-10.56-11.87-9.15
			C259.37,225.59,256.33,236.18,258.19,251.16z"/>
		<path class="st12" d="M314.45,200.55c0,0-2.69-2.58-5.65-1.51c-0.21,0.08-0.37,0.9-0.15,0.94c1.39,0.22,4.38,0.98,5.1,2.06
			C313.75,202.03,315.54,202.19,314.45,200.55z"/>
		<path class="st12" d="M311.63,204.57c-0.23,0.96-0.86,1.63-1.41,1.5c-0.55-0.13-0.82-1.01-0.59-1.97c0.23-0.96,0.86-1.63,1.41-1.5
			C311.59,202.73,311.86,203.61,311.63,204.57z"/>
		<path class="st15" d="M277.37,251.48c-3.4,1.85-10.93,5.05-18.77,2.59c-0.15-0.97-0.29-1.94-0.41-2.91
			c-0.22-1.77-0.37-3.46-0.45-5.1c4.15,0.94,11.48,1.64,19.43-2.07C277.18,246.46,277.24,249,277.37,251.48z"/>
		<path class="st15" d="M279.01,262.92c-2.9,2.02-9.25,5.43-17.23,3.43c-1.02-2.62-1.81-5.39-2.42-8.25
			c3.72,1.26,10.55,2.26,18.29-2.9C277.92,257.97,278.34,260.59,279.01,262.92z"/>
	</g>
	<g>
		<rect x="117.96" y="388.95" class="st7" width="43.37" height="1.28"/>
		<rect x="145.05" y="436.44" class="st7" width="43.37" height="1.28"/>
		<rect x="162.25" y="431.9" class="st7" width="63.99" height="1.28"/>
		<rect x="95.56" y="393.17" class="st7" width="63.99" height="1.28"/>
		<rect x="351.97" y="426.17" class="st7" width="63.99" height="1.28"/>
		<rect x="194.24" y="426.17" class="st7" width="41.28" height="1.28"/>
		<rect x="297.27" y="405.02" class="st7" width="41.28" height="1.28"/>
		<rect x="374.68" y="421.11" class="st7" width="41.28" height="1.28"/>
		<rect x="369.97" y="379.11" class="st7" width="41.28" height="1.28"/>
	</g>
</g>
<g id="DESIGNED_BY_FREEPIK">
</g>
</svg>
